G04 MADE WITH FRITZING*
G04 WWW.FRITZING.ORG*
G04 DOUBLE SIDED*
G04 HOLES PLATED*
G04 CONTOUR ON CENTER OF CONTOUR VECTOR*
%ASAXBY*%
%FSLAX23Y23*%
%MOIN*%
%OFA0B0*%
%SFA1.0B1.0*%
%ADD10C,0.039370*%
%ADD11C,0.080000*%
%ADD12C,0.078000*%
%ADD13C,0.062992*%
%ADD14C,0.075000*%
%ADD15C,0.092000*%
%ADD16C,0.076772*%
%ADD17C,0.070000*%
%ADD18C,0.070925*%
%ADD19C,0.070866*%
%ADD20C,0.079370*%
%ADD21C,0.074472*%
%ADD22C,0.074000*%
%ADD23R,0.080000X0.080000*%
%ADD24R,0.078000X0.078000*%
%ADD25R,0.062992X0.062992*%
%ADD26R,0.092000X0.092000*%
%ADD27R,0.075000X0.075000*%
%ADD28R,0.074108X0.074472*%
%ADD29C,0.024000*%
%LNCOPPER1*%
G90*
G70*
G54D10*
X493Y2097D03*
X579Y2956D03*
X2068Y3042D03*
X3131Y1979D03*
X3918Y3672D03*
X3800Y1349D03*
X532Y2333D03*
X2580Y2924D03*
X847Y2176D03*
X2501Y2884D03*
X2698Y2727D03*
X1202Y2451D03*
X1005Y2451D03*
X1320Y3042D03*
X1398Y3042D03*
G54D11*
X178Y3435D03*
X178Y3298D03*
X768Y3711D03*
X768Y3573D03*
G54D12*
X1202Y3475D03*
X1102Y3475D03*
G54D13*
X4434Y1339D03*
X4434Y1339D03*
G54D14*
X4351Y1705D03*
X4351Y1705D03*
G54D15*
X4312Y655D03*
X4312Y955D03*
G54D16*
X1202Y2963D03*
X926Y2963D03*
X1064Y2825D03*
G54D14*
X1869Y1742D03*
X1869Y1742D03*
G54D17*
X335Y1939D03*
X335Y2039D03*
G54D14*
X257Y443D03*
X657Y443D03*
G54D17*
X335Y2176D03*
X335Y2276D03*
G54D14*
X1183Y1976D03*
X1183Y2176D03*
X1283Y1976D03*
X1283Y2176D03*
X1383Y1976D03*
X1383Y2176D03*
X1483Y1976D03*
X1483Y2176D03*
X1583Y1976D03*
X1583Y2176D03*
X1683Y1976D03*
X1683Y2176D03*
X1783Y1976D03*
X1783Y2176D03*
X1883Y1976D03*
X1883Y2176D03*
X1983Y1976D03*
X1983Y2176D03*
X2083Y1976D03*
X2083Y2176D03*
X2183Y1976D03*
X2183Y2176D03*
X2283Y1976D03*
X2283Y2176D03*
X2383Y1976D03*
X2383Y2176D03*
X2483Y1976D03*
X2483Y2176D03*
G54D18*
X572Y1898D03*
G54D19*
X572Y1898D03*
G54D20*
X232Y1428D03*
X332Y1428D03*
X432Y1428D03*
X532Y1428D03*
X632Y1428D03*
G54D14*
X4036Y3514D03*
X4436Y3514D03*
G54D12*
X3682Y3711D03*
X3782Y3711D03*
G54D21*
X4284Y2652D03*
X4284Y2652D03*
X4284Y2552D03*
X4284Y2552D03*
X4284Y2451D03*
X4284Y2451D03*
X4284Y2351D03*
X4284Y2351D03*
X4284Y2652D03*
X4284Y2652D03*
X4284Y2552D03*
X4284Y2552D03*
X4284Y2451D03*
X4284Y2451D03*
X4284Y2351D03*
X4284Y2351D03*
G54D22*
X3059Y2960D03*
X3059Y2960D03*
X3059Y2960D03*
X3059Y2960D03*
G54D14*
X2538Y3711D03*
X2538Y3711D03*
X1987Y3711D03*
X1987Y3711D03*
X3089Y3711D03*
X3089Y3711D03*
X3918Y1705D03*
X3918Y1705D03*
X3643Y1705D03*
X3643Y1705D03*
X3367Y1705D03*
X3367Y1705D03*
X1202Y1467D03*
X1302Y1467D03*
X1402Y1467D03*
X1502Y1467D03*
X1602Y1467D03*
X1702Y1467D03*
X1802Y1467D03*
X1902Y1467D03*
X2002Y1467D03*
X2102Y1467D03*
X2202Y1467D03*
X2302Y1467D03*
X2402Y1467D03*
X2502Y1467D03*
X2602Y1467D03*
X2702Y1467D03*
G54D23*
X178Y3435D03*
X768Y3711D03*
G54D24*
X1202Y3475D03*
G54D25*
X4457Y1315D03*
G54D26*
X4312Y655D03*
G54D27*
X1183Y1888D03*
G54D24*
X3682Y3711D03*
G54D28*
X4312Y2652D03*
X4312Y2652D03*
X4312Y2351D03*
G54D27*
X1201Y1467D03*
G54D29*
X2384Y1947D02*
X2400Y1495D01*
D02*
X3659Y1766D02*
X3902Y2119D01*
D02*
X1684Y1947D02*
X1700Y1495D01*
D02*
X2484Y1947D02*
X2500Y1495D01*
D02*
X2284Y1947D02*
X2300Y1495D01*
D02*
X2200Y1495D02*
X2184Y1947D01*
D02*
X1484Y1947D02*
X1500Y1495D01*
D02*
X1584Y1947D02*
X1600Y1495D01*
D02*
X3997Y2569D02*
X4063Y2557D01*
D02*
X3996Y2884D02*
X3997Y2569D01*
D02*
X3800Y3082D02*
X3996Y2884D01*
D02*
X3783Y3681D02*
X3800Y3082D01*
D02*
X1123Y1742D02*
X1381Y1487D01*
D02*
X1123Y2688D02*
X1123Y1742D01*
D02*
X1201Y2766D02*
X1123Y2688D01*
D02*
X1201Y2926D02*
X1201Y2766D01*
D02*
X361Y2037D02*
X545Y2020D01*
D02*
X1713Y3318D02*
X1665Y3329D01*
D02*
X1713Y2845D02*
X1713Y3318D01*
D02*
X2107Y2451D02*
X1713Y2845D01*
D02*
X2362Y2196D02*
X2107Y2451D01*
D02*
X2540Y2057D02*
X2556Y1549D01*
D02*
X2107Y2058D02*
X2540Y2057D01*
D02*
X2091Y2003D02*
X2107Y2058D01*
D02*
X571Y1900D02*
X572Y1991D01*
D02*
X1122Y1389D02*
X571Y1900D01*
D02*
X2776Y1389D02*
X1122Y1389D01*
D02*
X2772Y1549D02*
X2776Y1389D01*
D02*
X2556Y1549D02*
X2772Y1549D01*
D02*
X361Y2269D02*
X546Y2218D01*
D02*
X1826Y1770D02*
X1789Y1948D01*
D02*
X1069Y2789D02*
X1083Y2688D01*
D02*
X847Y2096D02*
X512Y2097D01*
D02*
X1083Y2333D02*
X847Y2096D01*
D02*
X1083Y2688D02*
X1083Y2333D01*
D02*
X1604Y3134D02*
X1162Y3120D01*
D02*
X1044Y3002D02*
X1060Y2862D01*
D02*
X1162Y3120D02*
X1044Y3002D01*
D02*
X276Y2101D02*
X319Y2155D01*
D02*
X276Y1981D02*
X276Y2101D01*
D02*
X324Y1981D02*
X276Y1981D01*
D02*
X329Y1965D02*
X324Y1981D01*
D02*
X889Y2962D02*
X598Y2957D01*
D02*
X1604Y3236D02*
X1202Y3238D01*
D02*
X1202Y3238D02*
X952Y2989D01*
D02*
X1555Y3317D02*
X1613Y3258D01*
D02*
X1550Y3682D02*
X1555Y3317D01*
D02*
X1360Y3474D02*
X1532Y3689D01*
D02*
X1232Y3475D02*
X1360Y3474D01*
D02*
X1989Y2097D02*
X3013Y2098D01*
D02*
X1902Y1997D02*
X1989Y2097D01*
D02*
X3013Y2098D02*
X2081Y3028D01*
D02*
X3117Y1992D02*
X3013Y2098D01*
D02*
X3347Y1763D02*
X3144Y1965D01*
D02*
X4293Y1407D02*
X4037Y1663D01*
D02*
X3445Y1664D02*
X3387Y1722D01*
D02*
X4037Y1663D02*
X3445Y1664D01*
D02*
X4075Y2884D02*
X4272Y2687D01*
D02*
X4091Y2684D02*
X4075Y2884D01*
D02*
X4273Y1900D02*
X4037Y1663D01*
D02*
X4272Y2687D02*
X4273Y1900D01*
D02*
X3839Y3120D02*
X4075Y2884D01*
D02*
X3840Y3593D02*
X3839Y3120D01*
D02*
X3905Y3658D02*
X3840Y3593D01*
D02*
X3919Y3790D02*
X3918Y3691D01*
D02*
X3682Y3790D02*
X3919Y3790D01*
D02*
X3682Y3741D02*
X3682Y3790D01*
D02*
X1083Y1348D02*
X533Y1860D01*
D02*
X3781Y1349D02*
X1083Y1348D01*
D02*
X3602Y3553D02*
X3602Y3829D01*
D02*
X3328Y3553D02*
X3602Y3553D01*
D02*
X2594Y2936D02*
X3328Y3553D01*
D02*
X217Y2333D02*
X513Y2333D01*
D02*
X217Y1860D02*
X217Y2333D01*
D02*
X533Y1860D02*
X217Y1860D01*
D02*
X4351Y3829D02*
X4351Y3633D01*
D02*
X3602Y3829D02*
X4351Y3829D01*
D02*
X3721Y1309D02*
X1044Y1309D01*
D02*
X4287Y683D02*
X3721Y1309D01*
D02*
X4351Y3633D02*
X4420Y3537D01*
D02*
X1044Y1309D02*
X492Y1822D01*
D02*
X611Y2412D02*
X833Y2189D01*
D02*
X177Y2412D02*
X611Y2412D01*
D02*
X178Y1821D02*
X177Y2412D01*
D02*
X492Y1822D02*
X178Y1821D01*
D02*
X2516Y2872D02*
X2683Y2739D01*
D02*
X256Y1231D02*
X412Y1405D01*
D02*
X257Y472D02*
X256Y1231D01*
D02*
X1831Y2451D02*
X1221Y2451D01*
D02*
X2063Y2197D02*
X1831Y2451D01*
D02*
X986Y2451D02*
X139Y2451D01*
D02*
X139Y1743D02*
X411Y1450D01*
D02*
X139Y2451D02*
X139Y1743D01*
D02*
X2162Y2196D02*
X1333Y3028D01*
D02*
X2262Y2196D02*
X1412Y3028D01*
G04 End of Copper1*
M02*