M48
INCH
T10C0.086614
T11C0.015748
T12C0.040000
T13C0.038000
T14C0.031497
T15C0.035000
T16C0.052000
T17C0.051181
T18C0.030000
T19C0.031555
T20C0.031496
T21C0.039370
T22C0.040255
%
T10
X045086Y036716
X045086Y002857
X001385Y002857
X001385Y036716
X012409Y002857
X034062Y002857
X034062Y036716
X012409Y036716
T11
X013984Y030417
X013196Y030417
X010047Y024511
X012015Y024511
X026976Y027267
X025007Y028842
X008468Y021758
X025795Y029236
X005322Y023330
X037999Y013487
X039181Y036716
X031307Y019787
X020677Y030417
X005793Y029563
X004928Y020968
T12
X030587Y029600
X007684Y035732
X007684Y037110
X001779Y032976
X001779Y034354
T13
X037818Y037109
X036818Y037109
X011015Y034747
X012015Y034747
X004535Y034354
X004535Y030338
X004546Y029353
X004537Y036754
T14
X044338Y013389
T15
X027015Y014669
X026015Y014669
X025015Y014669
X024015Y014669
X023015Y014669
X022015Y014669
X021015Y014669
X020015Y014669
X019015Y014669
X018015Y014669
X017015Y014669
X016015Y014669
X015015Y014669
X014015Y014669
X013015Y014669
X012015Y014669
X033669Y017049
X036425Y017049
X039180Y017049
X030894Y037109
X019870Y037109
X025382Y037109
X044362Y035141
X040362Y035141
X024826Y021755
X024826Y019755
X023826Y021755
X023826Y019755
X022826Y021755
X022826Y019755
X021826Y021755
X021826Y019755
X020826Y021755
X020826Y019755
X019826Y021755
X019826Y019755
X018826Y021755
X018826Y019755
X017826Y021755
X017826Y019755
X016826Y021755
X016826Y019755
X015826Y021755
X015826Y019755
X014826Y021755
X014826Y019755
X013826Y021755
X013826Y019755
X012826Y021755
X012826Y019755
X011826Y021755
X011826Y019755
X006566Y004432
X002566Y004432
X018689Y017424
X043511Y017049
T16
X043117Y009551
X043117Y006550
T17
X010637Y028251
X009259Y029629
X012015Y029629
T18
X042724Y037109
X041724Y037109
X040724Y037109
X003354Y022755
X003354Y021755
X003354Y020393
X003354Y019393
T19
X005716Y018979
T20
X005716Y018979
T21
X006322Y014275
X005322Y014275
X004322Y014275
X003322Y014275
X002322Y014275
T22
X042839Y023505
X042839Y024511
X042839Y025517
X042839Y026524
T00
M30
