G04 MADE WITH FRITZING*
G04 WWW.FRITZING.ORG*
G04 DOUBLE SIDED*
G04 HOLES PLATED*
G04 CONTOUR ON CENTER OF CONTOUR VECTOR*
%ASAXBY*%
%FSLAX23Y23*%
%MOIN*%
%OFA0B0*%
%SFA1.0B1.0*%
%ADD10C,0.096614*%
%ADD11C,0.049370*%
%ADD12C,0.090000*%
%ADD13C,0.088000*%
%ADD14C,0.072992*%
%ADD15C,0.085000*%
%ADD16C,0.102000*%
%ADD17C,0.086772*%
%ADD18C,0.080000*%
%ADD19C,0.080925*%
%ADD20C,0.080866*%
%ADD21C,0.089370*%
%ADD22C,0.084472*%
%ADD23C,0.084000*%
%ADD24R,0.090000X0.090000*%
%ADD25R,0.088000X0.088000*%
%ADD26R,0.072992X0.072992*%
%ADD27R,0.102000X0.102000*%
%ADD28R,0.085000X0.085000*%
%ADD29R,0.084108X0.084472*%
%ADD30R,0.001000X0.001000*%
%LNMASK0*%
G90*
G70*
G54D10*
X1241Y3672D03*
X3406Y3672D03*
X3406Y286D03*
X1241Y286D03*
X139Y3672D03*
X139Y286D03*
X4509Y286D03*
X4509Y3672D03*
G54D11*
X493Y2097D03*
X579Y2956D03*
X2068Y3042D03*
X3131Y1979D03*
X3918Y3672D03*
X3800Y1349D03*
X532Y2333D03*
X2580Y2924D03*
X847Y2176D03*
X2501Y2884D03*
X2698Y2727D03*
X1202Y2451D03*
X1005Y2451D03*
X1320Y3042D03*
X1398Y3042D03*
G54D12*
X178Y3435D03*
X178Y3298D03*
X768Y3711D03*
X768Y3573D03*
G54D13*
X454Y3675D03*
X455Y2935D03*
X454Y3034D03*
X454Y3435D03*
X1202Y3475D03*
X1102Y3475D03*
G54D14*
X4434Y1339D03*
X4434Y1339D03*
G54D15*
X4351Y1705D03*
X4351Y1705D03*
G54D16*
X4312Y655D03*
X4312Y955D03*
G54D17*
X1202Y2963D03*
X926Y2963D03*
X1064Y2825D03*
G54D15*
X1869Y1742D03*
X1869Y1742D03*
G54D18*
X335Y1939D03*
X335Y2039D03*
G54D15*
X257Y443D03*
X657Y443D03*
G54D18*
X335Y2176D03*
X335Y2276D03*
G54D15*
X1183Y1976D03*
X1183Y2176D03*
X1283Y1976D03*
X1283Y2176D03*
X1383Y1976D03*
X1383Y2176D03*
X1483Y1976D03*
X1483Y2176D03*
X1583Y1976D03*
X1583Y2176D03*
X1683Y1976D03*
X1683Y2176D03*
X1783Y1976D03*
X1783Y2176D03*
X1883Y1976D03*
X1883Y2176D03*
X1983Y1976D03*
X1983Y2176D03*
X2083Y1976D03*
X2083Y2176D03*
X2183Y1976D03*
X2183Y2176D03*
X2283Y1976D03*
X2283Y2176D03*
X2383Y1976D03*
X2383Y2176D03*
X2483Y1976D03*
X2483Y2176D03*
G54D19*
X572Y1898D03*
G54D20*
X572Y1898D03*
G54D21*
X232Y1428D03*
X332Y1428D03*
X432Y1428D03*
X532Y1428D03*
X632Y1428D03*
G54D15*
X4036Y3514D03*
X4436Y3514D03*
G54D13*
X3682Y3711D03*
X3782Y3711D03*
G54D22*
X4284Y2652D03*
X4284Y2652D03*
X4284Y2552D03*
X4284Y2552D03*
X4284Y2451D03*
X4284Y2451D03*
X4284Y2351D03*
X4284Y2351D03*
G54D23*
X3059Y2960D03*
X3059Y2960D03*
X3059Y2960D03*
X3059Y2960D03*
G54D15*
X2538Y3711D03*
X2538Y3711D03*
X1987Y3711D03*
X1987Y3711D03*
X3089Y3711D03*
X3089Y3711D03*
X3918Y1705D03*
X3918Y1705D03*
X3643Y1705D03*
X3643Y1705D03*
X3367Y1705D03*
X3367Y1705D03*
X1202Y1467D03*
X1302Y1467D03*
X1402Y1467D03*
X1502Y1467D03*
X1602Y1467D03*
X1702Y1467D03*
X1802Y1467D03*
X1902Y1467D03*
X2002Y1467D03*
X2102Y1467D03*
X2202Y1467D03*
X2302Y1467D03*
X2402Y1467D03*
X2502Y1467D03*
X2602Y1467D03*
X2702Y1467D03*
G54D24*
X178Y3435D03*
X768Y3711D03*
G54D25*
X454Y3675D03*
X1202Y3475D03*
G54D26*
X4457Y1315D03*
G54D27*
X4312Y655D03*
G54D28*
X1183Y1888D03*
G54D25*
X3682Y3711D03*
G54D29*
X4312Y2652D03*
X4312Y2351D03*
G54D28*
X1201Y1467D03*
G54D30*
X4066Y3751D02*
X4076Y3751D01*
X4166Y3751D02*
X4176Y3751D01*
X4266Y3751D02*
X4276Y3751D01*
X4062Y3750D02*
X4081Y3750D01*
X4162Y3750D02*
X4181Y3750D01*
X4262Y3750D02*
X4281Y3750D01*
X4059Y3749D02*
X4083Y3749D01*
X4159Y3749D02*
X4183Y3749D01*
X4259Y3749D02*
X4283Y3749D01*
X4057Y3748D02*
X4086Y3748D01*
X4157Y3748D02*
X4186Y3748D01*
X4257Y3748D02*
X4286Y3748D01*
X4055Y3747D02*
X4088Y3747D01*
X4155Y3747D02*
X4188Y3747D01*
X4255Y3747D02*
X4288Y3747D01*
X4053Y3746D02*
X4089Y3746D01*
X4153Y3746D02*
X4189Y3746D01*
X4253Y3746D02*
X4289Y3746D01*
X4052Y3745D02*
X4091Y3745D01*
X4152Y3745D02*
X4191Y3745D01*
X4252Y3745D02*
X4291Y3745D01*
X4050Y3744D02*
X4092Y3744D01*
X4150Y3744D02*
X4192Y3744D01*
X4250Y3744D02*
X4292Y3744D01*
X4049Y3743D02*
X4094Y3743D01*
X4149Y3743D02*
X4194Y3743D01*
X4249Y3743D02*
X4294Y3743D01*
X4048Y3742D02*
X4095Y3742D01*
X4148Y3742D02*
X4195Y3742D01*
X4248Y3742D02*
X4295Y3742D01*
X4046Y3741D02*
X4096Y3741D01*
X4146Y3741D02*
X4196Y3741D01*
X4246Y3741D02*
X4296Y3741D01*
X4045Y3740D02*
X4097Y3740D01*
X4145Y3740D02*
X4197Y3740D01*
X4245Y3740D02*
X4297Y3740D01*
X4044Y3739D02*
X4098Y3739D01*
X4144Y3739D02*
X4198Y3739D01*
X4244Y3739D02*
X4298Y3739D01*
X4043Y3738D02*
X4099Y3738D01*
X4143Y3738D02*
X4199Y3738D01*
X4243Y3738D02*
X4299Y3738D01*
X4042Y3737D02*
X4100Y3737D01*
X4142Y3737D02*
X4200Y3737D01*
X4242Y3737D02*
X4300Y3737D01*
X4042Y3736D02*
X4101Y3736D01*
X4142Y3736D02*
X4201Y3736D01*
X4242Y3736D02*
X4301Y3736D01*
X4041Y3735D02*
X4102Y3735D01*
X4141Y3735D02*
X4202Y3735D01*
X4241Y3735D02*
X4302Y3735D01*
X4040Y3734D02*
X4103Y3734D01*
X4140Y3734D02*
X4203Y3734D01*
X4240Y3734D02*
X4303Y3734D01*
X4039Y3733D02*
X4103Y3733D01*
X4139Y3733D02*
X4203Y3733D01*
X4239Y3733D02*
X4303Y3733D01*
X4039Y3732D02*
X4104Y3732D01*
X4139Y3732D02*
X4204Y3732D01*
X4239Y3732D02*
X4304Y3732D01*
X4038Y3731D02*
X4105Y3731D01*
X4138Y3731D02*
X4205Y3731D01*
X4238Y3731D02*
X4305Y3731D01*
X4037Y3730D02*
X4105Y3730D01*
X4137Y3730D02*
X4205Y3730D01*
X4237Y3730D02*
X4305Y3730D01*
X4037Y3729D02*
X4106Y3729D01*
X4137Y3729D02*
X4206Y3729D01*
X4237Y3729D02*
X4306Y3729D01*
X4036Y3728D02*
X4106Y3728D01*
X4136Y3728D02*
X4206Y3728D01*
X4236Y3728D02*
X4306Y3728D01*
X4036Y3727D02*
X4107Y3727D01*
X4136Y3727D02*
X4207Y3727D01*
X4236Y3727D02*
X4307Y3727D01*
X4035Y3726D02*
X4107Y3726D01*
X4135Y3726D02*
X4207Y3726D01*
X4235Y3726D02*
X4307Y3726D01*
X4035Y3725D02*
X4108Y3725D01*
X4135Y3725D02*
X4208Y3725D01*
X4235Y3725D02*
X4308Y3725D01*
X4034Y3724D02*
X4108Y3724D01*
X4134Y3724D02*
X4208Y3724D01*
X4234Y3724D02*
X4308Y3724D01*
X4034Y3723D02*
X4109Y3723D01*
X4134Y3723D02*
X4209Y3723D01*
X4234Y3723D02*
X4309Y3723D01*
X4034Y3722D02*
X4109Y3722D01*
X4134Y3722D02*
X4209Y3722D01*
X4234Y3722D02*
X4309Y3722D01*
X4033Y3721D02*
X4109Y3721D01*
X4133Y3721D02*
X4209Y3721D01*
X4233Y3721D02*
X4309Y3721D01*
X4033Y3720D02*
X4110Y3720D01*
X4133Y3720D02*
X4210Y3720D01*
X4233Y3720D02*
X4310Y3720D01*
X4033Y3719D02*
X4110Y3719D01*
X4133Y3719D02*
X4210Y3719D01*
X4233Y3719D02*
X4310Y3719D01*
X4032Y3718D02*
X4110Y3718D01*
X4132Y3718D02*
X4210Y3718D01*
X4232Y3718D02*
X4310Y3718D01*
X4032Y3717D02*
X4110Y3717D01*
X4132Y3717D02*
X4210Y3717D01*
X4232Y3717D02*
X4310Y3717D01*
X4032Y3716D02*
X4110Y3716D01*
X4132Y3716D02*
X4210Y3716D01*
X4232Y3716D02*
X4310Y3716D01*
X4032Y3715D02*
X4111Y3715D01*
X4132Y3715D02*
X4211Y3715D01*
X4232Y3715D02*
X4311Y3715D01*
X4032Y3714D02*
X4111Y3714D01*
X4132Y3714D02*
X4211Y3714D01*
X4232Y3714D02*
X4311Y3714D01*
X4032Y3713D02*
X4111Y3713D01*
X4132Y3713D02*
X4211Y3713D01*
X4232Y3713D02*
X4311Y3713D01*
X4032Y3712D02*
X4111Y3712D01*
X4132Y3712D02*
X4211Y3712D01*
X4232Y3712D02*
X4311Y3712D01*
X4032Y3711D02*
X4111Y3711D01*
X4132Y3711D02*
X4211Y3711D01*
X4232Y3711D02*
X4311Y3711D01*
X4032Y3710D02*
X4111Y3710D01*
X4132Y3710D02*
X4211Y3710D01*
X4232Y3710D02*
X4311Y3710D01*
X4032Y3709D02*
X4111Y3709D01*
X4132Y3709D02*
X4211Y3709D01*
X4232Y3709D02*
X4311Y3709D01*
X4032Y3708D02*
X4111Y3708D01*
X4132Y3708D02*
X4211Y3708D01*
X4232Y3708D02*
X4311Y3708D01*
X4032Y3707D02*
X4110Y3707D01*
X4132Y3707D02*
X4210Y3707D01*
X4232Y3707D02*
X4310Y3707D01*
X4032Y3706D02*
X4110Y3706D01*
X4132Y3706D02*
X4210Y3706D01*
X4232Y3706D02*
X4310Y3706D01*
X4033Y3705D02*
X4110Y3705D01*
X4132Y3705D02*
X4210Y3705D01*
X4232Y3705D02*
X4310Y3705D01*
X4033Y3704D02*
X4110Y3704D01*
X4133Y3704D02*
X4210Y3704D01*
X4233Y3704D02*
X4310Y3704D01*
X4033Y3703D02*
X4110Y3703D01*
X4133Y3703D02*
X4210Y3703D01*
X4233Y3703D02*
X4310Y3703D01*
X4033Y3702D02*
X4109Y3702D01*
X4133Y3702D02*
X4209Y3702D01*
X4233Y3702D02*
X4309Y3702D01*
X4034Y3701D02*
X4109Y3701D01*
X4134Y3701D02*
X4209Y3701D01*
X4234Y3701D02*
X4309Y3701D01*
X4034Y3700D02*
X4109Y3700D01*
X4134Y3700D02*
X4209Y3700D01*
X4234Y3700D02*
X4309Y3700D01*
X4034Y3699D02*
X4108Y3699D01*
X4134Y3699D02*
X4208Y3699D01*
X4234Y3699D02*
X4308Y3699D01*
X4035Y3698D02*
X4108Y3698D01*
X4135Y3698D02*
X4208Y3698D01*
X4235Y3698D02*
X4308Y3698D01*
X4035Y3697D02*
X4107Y3697D01*
X4135Y3697D02*
X4207Y3697D01*
X4235Y3697D02*
X4307Y3697D01*
X4036Y3696D02*
X4107Y3696D01*
X4136Y3696D02*
X4207Y3696D01*
X4236Y3696D02*
X4307Y3696D01*
X4036Y3695D02*
X4106Y3695D01*
X4136Y3695D02*
X4206Y3695D01*
X4236Y3695D02*
X4306Y3695D01*
X4037Y3694D02*
X4106Y3694D01*
X4137Y3694D02*
X4206Y3694D01*
X4237Y3694D02*
X4306Y3694D01*
X4037Y3693D02*
X4105Y3693D01*
X4137Y3693D02*
X4205Y3693D01*
X4237Y3693D02*
X4305Y3693D01*
X4038Y3692D02*
X4105Y3692D01*
X4138Y3692D02*
X4205Y3692D01*
X4238Y3692D02*
X4305Y3692D01*
X4039Y3691D02*
X4104Y3691D01*
X4139Y3691D02*
X4204Y3691D01*
X4239Y3691D02*
X4304Y3691D01*
X4039Y3690D02*
X4103Y3690D01*
X4139Y3690D02*
X4203Y3690D01*
X4239Y3690D02*
X4303Y3690D01*
X4040Y3689D02*
X4103Y3689D01*
X4140Y3689D02*
X4203Y3689D01*
X4240Y3689D02*
X4303Y3689D01*
X4041Y3688D02*
X4102Y3688D01*
X4141Y3688D02*
X4202Y3688D01*
X4241Y3688D02*
X4302Y3688D01*
X4042Y3687D02*
X4101Y3687D01*
X4142Y3687D02*
X4201Y3687D01*
X4242Y3687D02*
X4301Y3687D01*
X4042Y3686D02*
X4100Y3686D01*
X4142Y3686D02*
X4200Y3686D01*
X4242Y3686D02*
X4300Y3686D01*
X4043Y3685D02*
X4099Y3685D01*
X4143Y3685D02*
X4199Y3685D01*
X4243Y3685D02*
X4299Y3685D01*
X4044Y3684D02*
X4098Y3684D01*
X4144Y3684D02*
X4198Y3684D01*
X4244Y3684D02*
X4298Y3684D01*
X4045Y3683D02*
X4097Y3683D01*
X4145Y3683D02*
X4197Y3683D01*
X4245Y3683D02*
X4297Y3683D01*
X4046Y3682D02*
X4096Y3682D01*
X4146Y3682D02*
X4196Y3682D01*
X4246Y3682D02*
X4296Y3682D01*
X4048Y3681D02*
X4095Y3681D01*
X4148Y3681D02*
X4195Y3681D01*
X4248Y3681D02*
X4295Y3681D01*
X4049Y3680D02*
X4094Y3680D01*
X4149Y3680D02*
X4194Y3680D01*
X4249Y3680D02*
X4294Y3680D01*
X4050Y3679D02*
X4092Y3679D01*
X4150Y3679D02*
X4192Y3679D01*
X4250Y3679D02*
X4292Y3679D01*
X4052Y3678D02*
X4091Y3678D01*
X4152Y3678D02*
X4191Y3678D01*
X4252Y3678D02*
X4291Y3678D01*
X4053Y3677D02*
X4089Y3677D01*
X4153Y3677D02*
X4189Y3677D01*
X4253Y3677D02*
X4289Y3677D01*
X4055Y3676D02*
X4088Y3676D01*
X4155Y3676D02*
X4188Y3676D01*
X4255Y3676D02*
X4288Y3676D01*
X4057Y3675D02*
X4086Y3675D01*
X4157Y3675D02*
X4186Y3675D01*
X4257Y3675D02*
X4286Y3675D01*
X4059Y3674D02*
X4083Y3674D01*
X4159Y3674D02*
X4183Y3674D01*
X4259Y3674D02*
X4283Y3674D01*
X4062Y3673D02*
X4080Y3673D01*
X4162Y3673D02*
X4180Y3673D01*
X4262Y3673D02*
X4280Y3673D01*
X4066Y3672D02*
X4076Y3672D01*
X4166Y3672D02*
X4176Y3672D01*
X4266Y3672D02*
X4276Y3672D01*
D02*
G04 End of Mask0*
M02*