G04 MADE WITH FRITZING*
G04 WWW.FRITZING.ORG*
G04 DOUBLE SIDED*
G04 HOLES PLATED*
G04 CONTOUR ON CENTER OF CONTOUR VECTOR*
%ASAXBY*%
%FSLAX23Y23*%
%MOIN*%
%OFA0B0*%
%SFA1.0B1.0*%
%ADD10C,0.102000*%
%ADD11C,0.049370*%
%ADD12C,0.086772*%
%ADD13C,0.085000*%
%ADD14C,0.080000*%
%ADD15C,0.080925*%
%ADD16C,0.080866*%
%ADD17C,0.089370*%
%ADD18C,0.074187*%
%ADD19C,0.088000*%
%ADD20C,0.084472*%
%ADD21C,0.084000*%
%ADD22C,0.072992*%
%ADD23R,0.102000X0.102000*%
%ADD24R,0.085000X0.085000*%
%ADD25R,0.088000X0.088000*%
%ADD26R,0.084108X0.084472*%
%ADD27R,0.072992X0.072992*%
%ADD28R,0.001000X0.001000*%
%LNMASK0*%
G90*
G70*
G54D10*
X3406Y3147D03*
X3406Y2847D03*
G54D11*
X1635Y3855D03*
X1241Y3343D03*
X1399Y3698D03*
X2265Y3265D03*
X2265Y3422D03*
X1884Y3294D03*
X1320Y3895D03*
X611Y2871D03*
X1713Y3777D03*
X3052Y3658D03*
X3204Y3717D03*
X3205Y3472D03*
X611Y3343D03*
G54D12*
X414Y1926D03*
X414Y2202D03*
X564Y2064D03*
G54D13*
X1475Y2753D03*
X1475Y2753D03*
G54D14*
X2658Y2910D03*
X2658Y3010D03*
G54D13*
X2937Y3304D03*
X2937Y2904D03*
G54D14*
X2658Y3147D03*
X2658Y3247D03*
G54D13*
X750Y2986D03*
X750Y3186D03*
X850Y2986D03*
X850Y3186D03*
X950Y2986D03*
X950Y3186D03*
X1050Y2986D03*
X1050Y3186D03*
X1150Y2986D03*
X1150Y3186D03*
X1250Y2986D03*
X1250Y3186D03*
X1350Y2986D03*
X1350Y3186D03*
X1450Y2986D03*
X1450Y3186D03*
X1550Y2986D03*
X1550Y3186D03*
X1650Y2986D03*
X1650Y3186D03*
X1750Y2986D03*
X1750Y3186D03*
X1850Y2986D03*
X1850Y3186D03*
X1950Y2986D03*
X1950Y3186D03*
X2050Y2986D03*
X2050Y3186D03*
G54D15*
X2422Y2869D03*
G54D16*
X2422Y2869D03*
G54D17*
X3131Y3250D03*
X3131Y3150D03*
X3131Y3050D03*
X3131Y2950D03*
X3131Y2850D03*
G54D13*
X414Y2755D03*
X414Y2755D03*
G54D18*
X1504Y444D03*
X1504Y539D03*
G54D19*
X729Y4013D03*
X829Y4013D03*
G54D20*
X860Y3816D03*
X760Y3816D03*
X860Y3716D03*
X760Y3716D03*
X860Y3615D03*
X760Y3615D03*
X860Y3514D03*
X760Y3514D03*
G54D21*
X3374Y3341D03*
X3374Y3341D03*
X3374Y3341D03*
X3374Y3341D03*
G54D13*
X2460Y4131D03*
X2460Y4131D03*
X1948Y4131D03*
X1948Y4131D03*
X3050Y4131D03*
X3050Y4131D03*
X139Y2952D03*
X139Y2952D03*
X139Y3463D03*
X139Y3463D03*
X609Y4013D03*
X609Y4013D03*
X955Y2481D03*
X1055Y2481D03*
X1155Y2481D03*
X1255Y2481D03*
X1355Y2481D03*
X1455Y2481D03*
X1555Y2481D03*
X1655Y2481D03*
X1755Y2481D03*
X1855Y2481D03*
X1955Y2481D03*
X2055Y2481D03*
X2155Y2481D03*
X2255Y2481D03*
X2355Y2481D03*
X2455Y2481D03*
G54D22*
X3804Y3070D03*
X3804Y3070D03*
G54D13*
X3682Y3345D03*
X3682Y3345D03*
G54D23*
X3406Y3147D03*
G54D24*
X750Y2898D03*
G54D25*
X729Y4013D03*
G54D26*
X943Y3816D03*
X943Y3514D03*
G54D24*
X955Y2482D03*
G54D27*
X3828Y3046D03*
G54D28*
X326Y3383D02*
X337Y3383D01*
X426Y3383D02*
X437Y3383D01*
X526Y3383D02*
X537Y3383D01*
X322Y3382D02*
X341Y3382D01*
X422Y3382D02*
X441Y3382D01*
X522Y3382D02*
X541Y3382D01*
X320Y3381D02*
X344Y3381D01*
X420Y3381D02*
X444Y3381D01*
X520Y3381D02*
X544Y3381D01*
X317Y3380D02*
X346Y3380D01*
X417Y3380D02*
X446Y3380D01*
X517Y3380D02*
X546Y3380D01*
X315Y3379D02*
X348Y3379D01*
X415Y3379D02*
X448Y3379D01*
X515Y3379D02*
X548Y3379D01*
X314Y3378D02*
X350Y3378D01*
X414Y3378D02*
X450Y3378D01*
X514Y3378D02*
X550Y3378D01*
X312Y3377D02*
X351Y3377D01*
X412Y3377D02*
X451Y3377D01*
X512Y3377D02*
X551Y3377D01*
X311Y3376D02*
X353Y3376D01*
X411Y3376D02*
X453Y3376D01*
X510Y3376D02*
X553Y3376D01*
X309Y3375D02*
X354Y3375D01*
X409Y3375D02*
X454Y3375D01*
X509Y3375D02*
X554Y3375D01*
X308Y3374D02*
X356Y3374D01*
X408Y3374D02*
X456Y3374D01*
X508Y3374D02*
X556Y3374D01*
X307Y3373D02*
X357Y3373D01*
X407Y3373D02*
X457Y3373D01*
X507Y3373D02*
X557Y3373D01*
X306Y3372D02*
X358Y3372D01*
X406Y3372D02*
X458Y3372D01*
X506Y3372D02*
X558Y3372D01*
X305Y3371D02*
X359Y3371D01*
X405Y3371D02*
X459Y3371D01*
X505Y3371D02*
X559Y3371D01*
X304Y3370D02*
X360Y3370D01*
X404Y3370D02*
X460Y3370D01*
X504Y3370D02*
X560Y3370D01*
X303Y3369D02*
X361Y3369D01*
X403Y3369D02*
X461Y3369D01*
X503Y3369D02*
X561Y3369D01*
X302Y3368D02*
X362Y3368D01*
X402Y3368D02*
X462Y3368D01*
X502Y3368D02*
X562Y3368D01*
X301Y3367D02*
X362Y3367D01*
X401Y3367D02*
X462Y3367D01*
X501Y3367D02*
X562Y3367D01*
X300Y3366D02*
X363Y3366D01*
X400Y3366D02*
X463Y3366D01*
X500Y3366D02*
X563Y3366D01*
X300Y3365D02*
X364Y3365D01*
X400Y3365D02*
X464Y3365D01*
X500Y3365D02*
X564Y3365D01*
X299Y3364D02*
X365Y3364D01*
X399Y3364D02*
X465Y3364D01*
X499Y3364D02*
X565Y3364D01*
X298Y3363D02*
X365Y3363D01*
X398Y3363D02*
X465Y3363D01*
X498Y3363D02*
X565Y3363D01*
X298Y3362D02*
X366Y3362D01*
X398Y3362D02*
X466Y3362D01*
X498Y3362D02*
X566Y3362D01*
X297Y3361D02*
X366Y3361D01*
X397Y3361D02*
X466Y3361D01*
X497Y3361D02*
X566Y3361D01*
X297Y3360D02*
X367Y3360D01*
X397Y3360D02*
X467Y3360D01*
X497Y3360D02*
X567Y3360D01*
X296Y3359D02*
X367Y3359D01*
X396Y3359D02*
X467Y3359D01*
X496Y3359D02*
X567Y3359D01*
X296Y3358D02*
X368Y3358D01*
X396Y3358D02*
X468Y3358D01*
X496Y3358D02*
X568Y3358D01*
X295Y3357D02*
X368Y3357D01*
X395Y3357D02*
X468Y3357D01*
X495Y3357D02*
X568Y3357D01*
X295Y3356D02*
X369Y3356D01*
X395Y3356D02*
X469Y3356D01*
X495Y3356D02*
X569Y3356D01*
X294Y3355D02*
X369Y3355D01*
X394Y3355D02*
X469Y3355D01*
X494Y3355D02*
X569Y3355D01*
X294Y3354D02*
X369Y3354D01*
X394Y3354D02*
X469Y3354D01*
X494Y3354D02*
X569Y3354D01*
X294Y3353D02*
X370Y3353D01*
X394Y3353D02*
X470Y3353D01*
X494Y3353D02*
X570Y3353D01*
X293Y3352D02*
X370Y3352D01*
X393Y3352D02*
X470Y3352D01*
X493Y3352D02*
X570Y3352D01*
X293Y3351D02*
X370Y3351D01*
X393Y3351D02*
X470Y3351D01*
X493Y3351D02*
X570Y3351D01*
X293Y3350D02*
X371Y3350D01*
X393Y3350D02*
X471Y3350D01*
X493Y3350D02*
X571Y3350D01*
X293Y3349D02*
X371Y3349D01*
X393Y3349D02*
X471Y3349D01*
X493Y3349D02*
X571Y3349D01*
X293Y3348D02*
X371Y3348D01*
X393Y3348D02*
X471Y3348D01*
X493Y3348D02*
X571Y3348D01*
X292Y3347D02*
X371Y3347D01*
X392Y3347D02*
X471Y3347D01*
X492Y3347D02*
X571Y3347D01*
X292Y3346D02*
X371Y3346D01*
X392Y3346D02*
X471Y3346D01*
X492Y3346D02*
X571Y3346D01*
X292Y3345D02*
X371Y3345D01*
X392Y3345D02*
X471Y3345D01*
X492Y3345D02*
X571Y3345D01*
X292Y3344D02*
X371Y3344D01*
X392Y3344D02*
X471Y3344D01*
X492Y3344D02*
X571Y3344D01*
X292Y3343D02*
X371Y3343D01*
X392Y3343D02*
X471Y3343D01*
X492Y3343D02*
X571Y3343D01*
X292Y3342D02*
X371Y3342D01*
X392Y3342D02*
X471Y3342D01*
X492Y3342D02*
X571Y3342D01*
X292Y3341D02*
X371Y3341D01*
X392Y3341D02*
X471Y3341D01*
X492Y3341D02*
X571Y3341D01*
X292Y3340D02*
X371Y3340D01*
X392Y3340D02*
X471Y3340D01*
X492Y3340D02*
X571Y3340D01*
X293Y3339D02*
X371Y3339D01*
X393Y3339D02*
X471Y3339D01*
X493Y3339D02*
X571Y3339D01*
X293Y3338D02*
X371Y3338D01*
X393Y3338D02*
X471Y3338D01*
X493Y3338D02*
X571Y3338D01*
X293Y3337D02*
X371Y3337D01*
X393Y3337D02*
X471Y3337D01*
X493Y3337D02*
X571Y3337D01*
X293Y3336D02*
X370Y3336D01*
X393Y3336D02*
X470Y3336D01*
X493Y3336D02*
X570Y3336D01*
X293Y3335D02*
X370Y3335D01*
X393Y3335D02*
X470Y3335D01*
X493Y3335D02*
X570Y3335D01*
X294Y3334D02*
X370Y3334D01*
X394Y3334D02*
X470Y3334D01*
X494Y3334D02*
X570Y3334D01*
X294Y3333D02*
X369Y3333D01*
X394Y3333D02*
X469Y3333D01*
X494Y3333D02*
X569Y3333D01*
X294Y3332D02*
X369Y3332D01*
X394Y3332D02*
X469Y3332D01*
X494Y3332D02*
X569Y3332D01*
X295Y3331D02*
X369Y3331D01*
X395Y3331D02*
X469Y3331D01*
X495Y3331D02*
X569Y3331D01*
X295Y3330D02*
X368Y3330D01*
X395Y3330D02*
X468Y3330D01*
X495Y3330D02*
X568Y3330D01*
X296Y3329D02*
X368Y3329D01*
X396Y3329D02*
X468Y3329D01*
X496Y3329D02*
X568Y3329D01*
X296Y3328D02*
X367Y3328D01*
X396Y3328D02*
X467Y3328D01*
X496Y3328D02*
X567Y3328D01*
X297Y3327D02*
X367Y3327D01*
X397Y3327D02*
X467Y3327D01*
X497Y3327D02*
X567Y3327D01*
X297Y3326D02*
X366Y3326D01*
X397Y3326D02*
X466Y3326D01*
X497Y3326D02*
X566Y3326D01*
X298Y3325D02*
X366Y3325D01*
X398Y3325D02*
X466Y3325D01*
X498Y3325D02*
X566Y3325D01*
X298Y3324D02*
X365Y3324D01*
X398Y3324D02*
X465Y3324D01*
X498Y3324D02*
X565Y3324D01*
X299Y3323D02*
X364Y3323D01*
X399Y3323D02*
X464Y3323D01*
X499Y3323D02*
X564Y3323D01*
X300Y3322D02*
X364Y3322D01*
X400Y3322D02*
X464Y3322D01*
X500Y3322D02*
X564Y3322D01*
X300Y3321D02*
X363Y3321D01*
X400Y3321D02*
X463Y3321D01*
X500Y3321D02*
X563Y3321D01*
X301Y3320D02*
X362Y3320D01*
X401Y3320D02*
X462Y3320D01*
X501Y3320D02*
X562Y3320D01*
X302Y3319D02*
X361Y3319D01*
X402Y3319D02*
X461Y3319D01*
X502Y3319D02*
X561Y3319D01*
X303Y3318D02*
X361Y3318D01*
X403Y3318D02*
X461Y3318D01*
X503Y3318D02*
X561Y3318D01*
X304Y3317D02*
X360Y3317D01*
X404Y3317D02*
X460Y3317D01*
X504Y3317D02*
X560Y3317D01*
X305Y3316D02*
X359Y3316D01*
X405Y3316D02*
X459Y3316D01*
X505Y3316D02*
X559Y3316D01*
X306Y3315D02*
X358Y3315D01*
X406Y3315D02*
X458Y3315D01*
X506Y3315D02*
X558Y3315D01*
X307Y3314D02*
X357Y3314D01*
X407Y3314D02*
X457Y3314D01*
X507Y3314D02*
X556Y3314D01*
X308Y3313D02*
X355Y3313D01*
X408Y3313D02*
X455Y3313D01*
X508Y3313D02*
X555Y3313D01*
X309Y3312D02*
X354Y3312D01*
X409Y3312D02*
X454Y3312D01*
X509Y3312D02*
X554Y3312D01*
X311Y3311D02*
X353Y3311D01*
X411Y3311D02*
X453Y3311D01*
X511Y3311D02*
X553Y3311D01*
X312Y3310D02*
X351Y3310D01*
X412Y3310D02*
X451Y3310D01*
X512Y3310D02*
X551Y3310D01*
X314Y3309D02*
X350Y3309D01*
X414Y3309D02*
X450Y3309D01*
X514Y3309D02*
X550Y3309D01*
X316Y3308D02*
X348Y3308D01*
X416Y3308D02*
X448Y3308D01*
X516Y3308D02*
X548Y3308D01*
X318Y3307D02*
X346Y3307D01*
X418Y3307D02*
X446Y3307D01*
X518Y3307D02*
X546Y3307D01*
X320Y3306D02*
X344Y3306D01*
X420Y3306D02*
X444Y3306D01*
X520Y3306D02*
X544Y3306D01*
X323Y3305D02*
X341Y3305D01*
X423Y3305D02*
X441Y3305D01*
X523Y3305D02*
X541Y3305D01*
X327Y3304D02*
X336Y3304D01*
X427Y3304D02*
X436Y3304D01*
X527Y3304D02*
X536Y3304D01*
X1271Y793D02*
X1367Y793D01*
X1271Y792D02*
X1367Y792D01*
X1271Y791D02*
X1367Y791D01*
X1271Y790D02*
X1367Y790D01*
X1271Y789D02*
X1367Y789D01*
X1271Y788D02*
X1367Y788D01*
X1271Y787D02*
X1367Y787D01*
X1271Y786D02*
X1367Y786D01*
X1271Y785D02*
X1367Y785D01*
X1271Y784D02*
X1367Y784D01*
X1271Y783D02*
X1367Y783D01*
X1271Y782D02*
X1367Y782D01*
X1271Y781D02*
X1367Y781D01*
X1271Y780D02*
X1367Y780D01*
X1271Y779D02*
X1367Y779D01*
X1271Y778D02*
X1367Y778D01*
X1271Y777D02*
X1367Y777D01*
X1271Y776D02*
X1367Y776D01*
X1271Y775D02*
X1367Y775D01*
X1271Y774D02*
X1367Y774D01*
X1271Y773D02*
X1367Y773D01*
X1271Y772D02*
X1367Y772D01*
X1271Y771D02*
X1367Y771D01*
X1271Y770D02*
X1367Y770D01*
X1271Y769D02*
X1367Y769D01*
X1271Y768D02*
X1367Y768D01*
X1271Y767D02*
X1367Y767D01*
X1271Y766D02*
X1367Y766D01*
X1271Y765D02*
X1367Y765D01*
X1271Y764D02*
X1367Y764D01*
X1271Y763D02*
X1367Y763D01*
X1271Y762D02*
X1367Y762D01*
X1271Y761D02*
X1367Y761D01*
X1271Y760D02*
X1367Y760D01*
X1271Y759D02*
X1367Y759D01*
X1271Y758D02*
X1367Y758D01*
X1271Y757D02*
X1367Y757D01*
X1271Y756D02*
X1367Y756D01*
X1271Y755D02*
X1367Y755D01*
X1271Y754D02*
X1367Y754D01*
X1271Y753D02*
X1367Y753D01*
X1271Y752D02*
X1367Y752D01*
X1271Y751D02*
X1367Y751D01*
X1271Y750D02*
X1367Y750D01*
X1271Y749D02*
X1367Y749D01*
X1271Y748D02*
X1367Y748D01*
X1271Y747D02*
X1367Y747D01*
X1271Y746D02*
X1367Y746D01*
X1271Y745D02*
X1367Y745D01*
X1271Y744D02*
X1367Y744D01*
X1271Y743D02*
X1367Y743D01*
X1271Y742D02*
X1367Y742D01*
X1271Y741D02*
X1367Y741D01*
X1271Y740D02*
X1367Y740D01*
X1271Y739D02*
X1367Y739D01*
X1271Y738D02*
X1367Y738D01*
X1271Y737D02*
X1367Y737D01*
X1271Y736D02*
X1367Y736D01*
X1271Y735D02*
X1367Y735D01*
X1271Y734D02*
X1367Y734D01*
X1271Y733D02*
X1367Y733D01*
X1271Y732D02*
X1367Y732D01*
X1271Y731D02*
X1367Y731D01*
X1271Y730D02*
X1367Y730D01*
X1271Y729D02*
X1367Y729D01*
X1271Y728D02*
X1367Y728D01*
X1271Y727D02*
X1367Y727D01*
X1271Y726D02*
X1367Y726D01*
X1271Y725D02*
X1367Y725D01*
X1271Y724D02*
X1367Y724D01*
X1271Y723D02*
X1367Y723D01*
X1271Y722D02*
X1367Y722D01*
X1271Y721D02*
X1367Y721D01*
X1271Y720D02*
X1367Y720D01*
X1271Y719D02*
X1367Y719D01*
X1271Y718D02*
X1367Y718D01*
X1271Y717D02*
X1367Y717D01*
X1271Y716D02*
X1367Y716D01*
X1271Y715D02*
X1367Y715D01*
X1271Y714D02*
X1367Y714D01*
X1271Y713D02*
X1367Y713D01*
X1271Y712D02*
X1367Y712D01*
X1271Y711D02*
X1367Y711D01*
X1271Y710D02*
X1367Y710D01*
X1271Y709D02*
X1367Y709D01*
X1271Y708D02*
X1367Y708D01*
X1271Y707D02*
X1367Y707D01*
X1271Y706D02*
X1367Y706D01*
X1271Y705D02*
X1367Y705D01*
X1271Y704D02*
X1367Y704D01*
X1271Y703D02*
X1367Y703D01*
X1271Y702D02*
X1367Y702D01*
X1271Y701D02*
X1367Y701D01*
X1271Y700D02*
X1367Y700D01*
X1271Y699D02*
X1367Y699D01*
X1271Y698D02*
X1367Y698D01*
X1271Y585D02*
X1367Y585D01*
X1271Y584D02*
X1367Y584D01*
X1271Y583D02*
X1367Y583D01*
X1271Y582D02*
X1367Y582D01*
X1271Y581D02*
X1367Y581D01*
X1271Y580D02*
X1367Y580D01*
X1271Y579D02*
X1367Y579D01*
X1271Y578D02*
X1367Y578D01*
X1271Y577D02*
X1367Y577D01*
X1271Y576D02*
X1367Y576D01*
X1271Y575D02*
X1367Y575D01*
X1271Y574D02*
X1367Y574D01*
X1271Y573D02*
X1367Y573D01*
X1271Y572D02*
X1367Y572D01*
X1271Y571D02*
X1367Y571D01*
X1271Y570D02*
X1367Y570D01*
X1271Y569D02*
X1367Y569D01*
X1271Y568D02*
X1367Y568D01*
X1271Y567D02*
X1367Y567D01*
X1271Y566D02*
X1367Y566D01*
X1271Y565D02*
X1367Y565D01*
X1271Y564D02*
X1367Y564D01*
X1271Y563D02*
X1367Y563D01*
X1271Y562D02*
X1367Y562D01*
X1271Y561D02*
X1367Y561D01*
X1271Y560D02*
X1367Y560D01*
X1271Y559D02*
X1367Y559D01*
X1271Y558D02*
X1367Y558D01*
X1271Y557D02*
X1367Y557D01*
X1271Y556D02*
X1367Y556D01*
X1271Y555D02*
X1367Y555D01*
X1271Y554D02*
X1367Y554D01*
X1271Y553D02*
X1367Y553D01*
X1271Y552D02*
X1367Y552D01*
X1271Y551D02*
X1367Y551D01*
X1271Y550D02*
X1367Y550D01*
X1271Y549D02*
X1367Y549D01*
X1271Y548D02*
X1367Y548D01*
X1271Y547D02*
X1367Y547D01*
X1271Y546D02*
X1367Y546D01*
X1271Y545D02*
X1367Y545D01*
X1271Y544D02*
X1367Y544D01*
X1271Y543D02*
X1367Y543D01*
X1271Y542D02*
X1367Y542D01*
X1271Y541D02*
X1367Y541D01*
X1271Y540D02*
X1367Y540D01*
X1271Y539D02*
X1367Y539D01*
X1271Y538D02*
X1367Y538D01*
X1271Y537D02*
X1367Y537D01*
X1271Y536D02*
X1367Y536D01*
X1271Y535D02*
X1367Y535D01*
X1271Y534D02*
X1367Y534D01*
X1271Y533D02*
X1367Y533D01*
X1271Y532D02*
X1367Y532D01*
X1271Y531D02*
X1367Y531D01*
X1271Y530D02*
X1367Y530D01*
X1271Y529D02*
X1367Y529D01*
X1271Y528D02*
X1367Y528D01*
X1271Y527D02*
X1367Y527D01*
X1271Y526D02*
X1367Y526D01*
X1271Y525D02*
X1367Y525D01*
X1271Y524D02*
X1367Y524D01*
X1271Y523D02*
X1367Y523D01*
X1271Y522D02*
X1367Y522D01*
X1271Y521D02*
X1367Y521D01*
X1271Y520D02*
X1367Y520D01*
X1271Y519D02*
X1367Y519D01*
X1271Y518D02*
X1367Y518D01*
X1271Y517D02*
X1367Y517D01*
X1271Y516D02*
X1367Y516D01*
X1271Y515D02*
X1367Y515D01*
X1271Y514D02*
X1367Y514D01*
X1271Y513D02*
X1367Y513D01*
X1271Y512D02*
X1367Y512D01*
X1271Y511D02*
X1367Y511D01*
X1271Y510D02*
X1367Y510D01*
X1271Y509D02*
X1367Y509D01*
X1271Y508D02*
X1367Y508D01*
X1271Y507D02*
X1367Y507D01*
X1271Y506D02*
X1367Y506D01*
X1271Y505D02*
X1367Y505D01*
X1271Y504D02*
X1367Y504D01*
X1271Y503D02*
X1367Y503D01*
X1271Y502D02*
X1367Y502D01*
X1271Y501D02*
X1367Y501D01*
X1271Y500D02*
X1367Y500D01*
X1271Y499D02*
X1367Y499D01*
X1271Y498D02*
X1367Y498D01*
X1271Y497D02*
X1367Y497D01*
X1271Y496D02*
X1367Y496D01*
X1271Y495D02*
X1367Y495D01*
X1271Y494D02*
X1367Y494D01*
X1271Y493D02*
X1367Y493D01*
X1271Y492D02*
X1367Y492D01*
X1271Y491D02*
X1367Y491D01*
X1271Y490D02*
X1367Y490D01*
X235Y387D02*
X316Y387D01*
X235Y386D02*
X316Y386D01*
X235Y385D02*
X316Y385D01*
X235Y384D02*
X316Y384D01*
X235Y383D02*
X316Y383D01*
X235Y382D02*
X316Y382D01*
X235Y381D02*
X316Y381D01*
X235Y380D02*
X316Y380D01*
X235Y379D02*
X316Y379D01*
X235Y378D02*
X316Y378D01*
X235Y377D02*
X316Y377D01*
X1271Y377D02*
X1367Y377D01*
X235Y376D02*
X316Y376D01*
X1271Y376D02*
X1367Y376D01*
X235Y375D02*
X316Y375D01*
X1271Y375D02*
X1367Y375D01*
X235Y374D02*
X316Y374D01*
X1271Y374D02*
X1367Y374D01*
X235Y373D02*
X316Y373D01*
X1271Y373D02*
X1367Y373D01*
X235Y372D02*
X316Y372D01*
X1271Y372D02*
X1367Y372D01*
X235Y371D02*
X316Y371D01*
X1271Y371D02*
X1367Y371D01*
X235Y370D02*
X316Y370D01*
X1271Y370D02*
X1367Y370D01*
X235Y369D02*
X316Y369D01*
X1271Y369D02*
X1367Y369D01*
X235Y368D02*
X316Y368D01*
X1271Y368D02*
X1367Y368D01*
X235Y367D02*
X316Y367D01*
X1271Y367D02*
X1367Y367D01*
X235Y366D02*
X316Y366D01*
X1271Y366D02*
X1367Y366D01*
X235Y365D02*
X316Y365D01*
X1271Y365D02*
X1367Y365D01*
X235Y364D02*
X316Y364D01*
X1271Y364D02*
X1367Y364D01*
X235Y363D02*
X316Y363D01*
X1271Y363D02*
X1367Y363D01*
X235Y362D02*
X316Y362D01*
X1271Y362D02*
X1367Y362D01*
X235Y361D02*
X316Y361D01*
X1271Y361D02*
X1367Y361D01*
X235Y360D02*
X316Y360D01*
X1271Y360D02*
X1367Y360D01*
X235Y359D02*
X316Y359D01*
X1271Y359D02*
X1367Y359D01*
X235Y358D02*
X316Y358D01*
X1271Y358D02*
X1367Y358D01*
X235Y357D02*
X316Y357D01*
X1271Y357D02*
X1367Y357D01*
X235Y356D02*
X316Y356D01*
X1271Y356D02*
X1367Y356D01*
X235Y355D02*
X316Y355D01*
X1271Y355D02*
X1367Y355D01*
X235Y354D02*
X316Y354D01*
X1271Y354D02*
X1367Y354D01*
X235Y353D02*
X316Y353D01*
X1271Y353D02*
X1367Y353D01*
X235Y352D02*
X316Y352D01*
X1271Y352D02*
X1367Y352D01*
X235Y351D02*
X316Y351D01*
X1271Y351D02*
X1367Y351D01*
X235Y350D02*
X316Y350D01*
X1271Y350D02*
X1367Y350D01*
X235Y349D02*
X316Y349D01*
X1271Y349D02*
X1367Y349D01*
X235Y348D02*
X316Y348D01*
X1271Y348D02*
X1367Y348D01*
X235Y347D02*
X316Y347D01*
X1271Y347D02*
X1367Y347D01*
X235Y346D02*
X316Y346D01*
X1271Y346D02*
X1367Y346D01*
X235Y345D02*
X316Y345D01*
X1271Y345D02*
X1367Y345D01*
X235Y344D02*
X316Y344D01*
X1271Y344D02*
X1367Y344D01*
X235Y343D02*
X316Y343D01*
X1271Y343D02*
X1367Y343D01*
X235Y342D02*
X316Y342D01*
X1271Y342D02*
X1367Y342D01*
X235Y341D02*
X316Y341D01*
X1271Y341D02*
X1367Y341D01*
X235Y340D02*
X316Y340D01*
X1271Y340D02*
X1367Y340D01*
X235Y339D02*
X316Y339D01*
X1271Y339D02*
X1367Y339D01*
X235Y338D02*
X316Y338D01*
X1271Y338D02*
X1367Y338D01*
X235Y337D02*
X316Y337D01*
X1271Y337D02*
X1367Y337D01*
X235Y336D02*
X316Y336D01*
X1271Y336D02*
X1367Y336D01*
X235Y335D02*
X316Y335D01*
X1271Y335D02*
X1367Y335D01*
X235Y334D02*
X316Y334D01*
X1271Y334D02*
X1367Y334D01*
X235Y333D02*
X316Y333D01*
X1271Y333D02*
X1367Y333D01*
X235Y332D02*
X316Y332D01*
X1271Y332D02*
X1367Y332D01*
X235Y331D02*
X316Y331D01*
X1271Y331D02*
X1367Y331D01*
X235Y330D02*
X316Y330D01*
X1271Y330D02*
X1367Y330D01*
X235Y329D02*
X316Y329D01*
X1271Y329D02*
X1367Y329D01*
X235Y328D02*
X316Y328D01*
X1271Y328D02*
X1367Y328D01*
X235Y327D02*
X316Y327D01*
X1271Y327D02*
X1367Y327D01*
X235Y326D02*
X316Y326D01*
X1271Y326D02*
X1367Y326D01*
X235Y325D02*
X316Y325D01*
X1271Y325D02*
X1367Y325D01*
X235Y324D02*
X316Y324D01*
X1271Y324D02*
X1367Y324D01*
X235Y323D02*
X316Y323D01*
X1271Y323D02*
X1367Y323D01*
X235Y322D02*
X316Y322D01*
X1271Y322D02*
X1367Y322D01*
X235Y321D02*
X316Y321D01*
X1271Y321D02*
X1367Y321D01*
X235Y320D02*
X316Y320D01*
X1271Y320D02*
X1367Y320D01*
X235Y319D02*
X316Y319D01*
X1271Y319D02*
X1367Y319D01*
X235Y318D02*
X316Y318D01*
X1271Y318D02*
X1367Y318D01*
X235Y317D02*
X316Y317D01*
X1271Y317D02*
X1367Y317D01*
X235Y316D02*
X316Y316D01*
X1271Y316D02*
X1367Y316D01*
X235Y315D02*
X316Y315D01*
X1271Y315D02*
X1367Y315D01*
X235Y314D02*
X316Y314D01*
X1271Y314D02*
X1367Y314D01*
X235Y313D02*
X316Y313D01*
X1271Y313D02*
X1367Y313D01*
X235Y312D02*
X316Y312D01*
X1271Y312D02*
X1367Y312D01*
X235Y311D02*
X316Y311D01*
X1271Y311D02*
X1367Y311D01*
X235Y310D02*
X316Y310D01*
X1271Y310D02*
X1367Y310D01*
X235Y309D02*
X316Y309D01*
X1271Y309D02*
X1367Y309D01*
X235Y308D02*
X316Y308D01*
X1271Y308D02*
X1367Y308D01*
X235Y307D02*
X316Y307D01*
X1271Y307D02*
X1367Y307D01*
X235Y306D02*
X316Y306D01*
X1271Y306D02*
X1367Y306D01*
X1271Y305D02*
X1367Y305D01*
X1271Y304D02*
X1367Y304D01*
X1271Y303D02*
X1367Y303D01*
X1271Y302D02*
X1367Y302D01*
X1271Y301D02*
X1367Y301D01*
X1271Y300D02*
X1367Y300D01*
X1271Y299D02*
X1367Y299D01*
X1271Y298D02*
X1367Y298D01*
X1271Y297D02*
X1367Y297D01*
X1271Y296D02*
X1367Y296D01*
X1271Y295D02*
X1367Y295D01*
X1271Y294D02*
X1367Y294D01*
X1271Y293D02*
X1367Y293D01*
X1271Y292D02*
X1367Y292D01*
X1271Y291D02*
X1367Y291D01*
X1271Y290D02*
X1367Y290D01*
X1271Y289D02*
X1367Y289D01*
X1271Y288D02*
X1367Y288D01*
X1271Y287D02*
X1367Y287D01*
X1271Y286D02*
X1367Y286D01*
X1271Y285D02*
X1367Y285D01*
X1271Y284D02*
X1367Y284D01*
X1271Y283D02*
X1367Y283D01*
X1271Y282D02*
X1367Y282D01*
X1272Y281D02*
X1367Y281D01*
D02*
G04 End of Mask0*
M02*