G04 MADE WITH FRITZING*
G04 WWW.FRITZING.ORG*
G04 DOUBLE SIDED*
G04 HOLES PLATED*
G04 CONTOUR ON CENTER OF CONTOUR VECTOR*
%ASAXBY*%
%FSLAX23Y23*%
%MOIN*%
%OFA0B0*%
%SFA1.0B1.0*%
%ADD10C,0.092000*%
%ADD11C,0.039370*%
%ADD12C,0.076772*%
%ADD13C,0.075000*%
%ADD14C,0.070000*%
%ADD15C,0.070925*%
%ADD16C,0.070866*%
%ADD17C,0.079370*%
%ADD18C,0.064187*%
%ADD19C,0.078000*%
%ADD20C,0.074472*%
%ADD21C,0.074000*%
%ADD22C,0.062992*%
%ADD23R,0.092000X0.092000*%
%ADD24R,0.075000X0.075000*%
%ADD25R,0.078000X0.078000*%
%ADD26R,0.074108X0.074472*%
%ADD27R,0.062992X0.062992*%
%ADD28C,0.024000*%
%ADD29R,0.001000X0.001000*%
%LNCOPPER0*%
G90*
G70*
G54D10*
X3406Y3147D03*
X3406Y2847D03*
G54D11*
X1635Y3855D03*
X1241Y3343D03*
X1399Y3698D03*
X2265Y3265D03*
X2265Y3422D03*
X1884Y3294D03*
X1320Y3895D03*
X611Y2871D03*
X1713Y3777D03*
X3052Y3658D03*
X3204Y3717D03*
X3205Y3472D03*
X611Y3343D03*
G54D12*
X414Y1926D03*
X414Y2202D03*
X564Y2064D03*
G54D13*
X1475Y2753D03*
X1475Y2753D03*
G54D14*
X2658Y2910D03*
X2658Y3010D03*
G54D13*
X2937Y3304D03*
X2937Y2904D03*
G54D14*
X2658Y3147D03*
X2658Y3247D03*
G54D13*
X750Y2986D03*
X750Y3186D03*
X850Y2986D03*
X850Y3186D03*
X950Y2986D03*
X950Y3186D03*
X1050Y2986D03*
X1050Y3186D03*
X1150Y2986D03*
X1150Y3186D03*
X1250Y2986D03*
X1250Y3186D03*
X1350Y2986D03*
X1350Y3186D03*
X1450Y2986D03*
X1450Y3186D03*
X1550Y2986D03*
X1550Y3186D03*
X1650Y2986D03*
X1650Y3186D03*
X1750Y2986D03*
X1750Y3186D03*
X1850Y2986D03*
X1850Y3186D03*
X1950Y2986D03*
X1950Y3186D03*
X2050Y2986D03*
X2050Y3186D03*
G54D15*
X2422Y2869D03*
G54D16*
X2422Y2869D03*
G54D17*
X3131Y3250D03*
X3131Y3150D03*
X3131Y3050D03*
X3131Y2950D03*
X3131Y2850D03*
G54D13*
X414Y2755D03*
X414Y2755D03*
G54D18*
X1504Y444D03*
X1504Y539D03*
G54D19*
X729Y4013D03*
X829Y4013D03*
G54D20*
X860Y3816D03*
X760Y3816D03*
X860Y3716D03*
X760Y3716D03*
X860Y3615D03*
X760Y3615D03*
X860Y3514D03*
X760Y3514D03*
G54D21*
X3374Y3341D03*
X3374Y3341D03*
X3374Y3341D03*
X3374Y3341D03*
G54D13*
X2460Y4131D03*
X2460Y4131D03*
X1948Y4131D03*
X1948Y4131D03*
X3050Y4131D03*
X3050Y4131D03*
X139Y2952D03*
X139Y2952D03*
X139Y3463D03*
X139Y3463D03*
X609Y4013D03*
X609Y4013D03*
X955Y2481D03*
X1055Y2481D03*
X1155Y2481D03*
X1255Y2481D03*
X1355Y2481D03*
X1455Y2481D03*
X1555Y2481D03*
X1655Y2481D03*
X1755Y2481D03*
X1855Y2481D03*
X1955Y2481D03*
X2055Y2481D03*
X2155Y2481D03*
X2255Y2481D03*
X2355Y2481D03*
X2455Y2481D03*
G54D14*
X332Y3343D03*
X432Y3343D03*
X532Y3343D03*
G54D22*
X3804Y3070D03*
X3804Y3070D03*
G54D13*
X3682Y3345D03*
X3682Y3345D03*
G54D23*
X3406Y3147D03*
G54D24*
X750Y2898D03*
G54D25*
X729Y4013D03*
G54D26*
X943Y3816D03*
X943Y3514D03*
G54D24*
X955Y2482D03*
G54D27*
X3828Y3046D03*
G54D28*
X2029Y3304D02*
X2029Y3698D01*
D02*
X1966Y3210D02*
X2029Y3304D01*
D02*
X2029Y3698D02*
X1980Y3709D01*
D02*
X2451Y4131D02*
X2584Y4131D01*
D02*
X1993Y4131D02*
X1939Y4131D01*
D02*
X2060Y2959D02*
X2244Y2508D01*
D02*
X139Y3418D02*
X139Y3472D01*
D02*
X842Y3489D02*
X804Y3438D01*
D02*
X804Y3438D02*
X167Y3498D01*
D02*
X1960Y2959D02*
X2144Y2508D01*
D02*
X1016Y2771D02*
X772Y2968D01*
D02*
X1944Y2508D02*
X1760Y2959D01*
D02*
X2632Y3008D02*
X2449Y2992D01*
D02*
X1665Y3010D02*
X1692Y3054D01*
D02*
X1692Y3054D02*
X2422Y3068D01*
D02*
X2422Y3068D02*
X2422Y3016D01*
D02*
X792Y3716D02*
X829Y3716D01*
D02*
X1160Y2959D02*
X1344Y2508D01*
D02*
X1260Y2959D02*
X1444Y2508D01*
D02*
X1060Y2959D02*
X1244Y2508D01*
D02*
X527Y3318D02*
X420Y2820D01*
D02*
X245Y452D02*
X177Y470D01*
D02*
X177Y2064D02*
X240Y2064D01*
D02*
X177Y470D02*
X177Y2064D01*
D02*
X2633Y3240D02*
X2448Y3189D01*
D02*
X1568Y3008D02*
X1644Y3102D01*
D02*
X1644Y3102D02*
X2422Y3107D01*
D02*
X2422Y3107D02*
X2422Y3155D01*
D02*
X843Y3842D02*
X746Y3988D01*
D02*
X345Y3366D02*
X372Y3414D01*
D02*
X372Y3414D02*
X852Y3390D01*
D02*
X852Y3390D02*
X924Y3438D01*
D02*
X924Y3438D02*
X924Y3774D01*
D02*
X924Y3774D02*
X886Y3799D01*
D02*
X1484Y4118D02*
X889Y3830D01*
D02*
X1447Y3014D02*
X1438Y3108D01*
D02*
X1438Y3108D02*
X684Y3126D01*
D02*
X684Y3126D02*
X684Y3246D01*
D02*
X684Y3246D02*
X852Y3390D01*
D02*
X934Y2500D02*
X684Y2718D01*
D02*
X684Y2718D02*
X684Y3126D01*
D02*
X447Y2219D02*
X930Y2468D01*
D02*
X2467Y2507D02*
X2647Y2887D01*
D02*
X3119Y2821D02*
X3092Y2753D01*
D02*
X3092Y2753D02*
X2683Y2901D01*
D02*
X3369Y2847D02*
X3161Y2849D01*
D02*
X307Y349D02*
X335Y352D01*
D02*
X335Y352D02*
X348Y2142D01*
D02*
X348Y2142D02*
X387Y2177D01*
D02*
X1635Y3874D02*
X1635Y4210D01*
D02*
X1635Y4210D02*
X1860Y4206D01*
D02*
X1860Y4206D02*
X2106Y4210D01*
D02*
X2106Y4210D02*
X2107Y3343D01*
D02*
X2107Y3343D02*
X2776Y3344D01*
D02*
X2776Y3344D02*
X2776Y3226D01*
D02*
X3012Y3226D02*
X3012Y3344D01*
D02*
X2776Y3226D02*
X3012Y3226D01*
D02*
X3012Y3344D02*
X3406Y3344D01*
D02*
X3406Y3344D02*
X3406Y3184D01*
D02*
X429Y3318D02*
X418Y3221D01*
D02*
X1248Y3215D02*
X1242Y3324D01*
D02*
X1412Y3684D02*
X1831Y3207D01*
D02*
X2076Y3196D02*
X2247Y3258D01*
D02*
X2278Y3435D02*
X2992Y4111D01*
D02*
X1871Y3308D02*
X1333Y3881D01*
D02*
X611Y2890D02*
X611Y3324D01*
D02*
X1694Y3777D02*
X1556Y3777D01*
D02*
X1556Y3777D02*
X1596Y4249D01*
D02*
X1596Y4249D02*
X3092Y4250D01*
D02*
X3092Y4250D02*
X3053Y3677D01*
D02*
X3204Y3698D02*
X3204Y3491D01*
G54D29*
X327Y3378D02*
X337Y3378D01*
X427Y3378D02*
X437Y3378D01*
X527Y3378D02*
X537Y3378D01*
X323Y3377D02*
X341Y3377D01*
X423Y3377D02*
X441Y3377D01*
X523Y3377D02*
X541Y3377D01*
X320Y3376D02*
X343Y3376D01*
X420Y3376D02*
X443Y3376D01*
X520Y3376D02*
X543Y3376D01*
X318Y3375D02*
X346Y3375D01*
X418Y3375D02*
X446Y3375D01*
X518Y3375D02*
X546Y3375D01*
X316Y3374D02*
X347Y3374D01*
X416Y3374D02*
X447Y3374D01*
X516Y3374D02*
X547Y3374D01*
X314Y3373D02*
X349Y3373D01*
X414Y3373D02*
X449Y3373D01*
X514Y3373D02*
X549Y3373D01*
X313Y3372D02*
X351Y3372D01*
X413Y3372D02*
X451Y3372D01*
X513Y3372D02*
X550Y3372D01*
X312Y3371D02*
X352Y3371D01*
X412Y3371D02*
X452Y3371D01*
X512Y3371D02*
X552Y3371D01*
X310Y3370D02*
X353Y3370D01*
X410Y3370D02*
X453Y3370D01*
X510Y3370D02*
X553Y3370D01*
X309Y3369D02*
X354Y3369D01*
X409Y3369D02*
X454Y3369D01*
X509Y3369D02*
X554Y3369D01*
X308Y3368D02*
X355Y3368D01*
X408Y3368D02*
X455Y3368D01*
X508Y3368D02*
X555Y3368D01*
X307Y3367D02*
X356Y3367D01*
X407Y3367D02*
X456Y3367D01*
X507Y3367D02*
X556Y3367D01*
X306Y3366D02*
X357Y3366D01*
X406Y3366D02*
X457Y3366D01*
X506Y3366D02*
X557Y3366D01*
X305Y3365D02*
X358Y3365D01*
X405Y3365D02*
X458Y3365D01*
X505Y3365D02*
X558Y3365D01*
X305Y3364D02*
X359Y3364D01*
X405Y3364D02*
X459Y3364D01*
X505Y3364D02*
X559Y3364D01*
X304Y3363D02*
X360Y3363D01*
X404Y3363D02*
X460Y3363D01*
X504Y3363D02*
X560Y3363D01*
X303Y3362D02*
X360Y3362D01*
X403Y3362D02*
X460Y3362D01*
X503Y3362D02*
X560Y3362D01*
X303Y3361D02*
X361Y3361D01*
X403Y3361D02*
X461Y3361D01*
X503Y3361D02*
X561Y3361D01*
X302Y3360D02*
X362Y3360D01*
X402Y3360D02*
X462Y3360D01*
X502Y3360D02*
X561Y3360D01*
X301Y3359D02*
X362Y3359D01*
X401Y3359D02*
X462Y3359D01*
X501Y3359D02*
X562Y3359D01*
X301Y3358D02*
X326Y3358D01*
X337Y3358D02*
X363Y3358D01*
X401Y3358D02*
X426Y3358D01*
X437Y3358D02*
X463Y3358D01*
X501Y3358D02*
X526Y3358D01*
X537Y3358D02*
X563Y3358D01*
X300Y3357D02*
X323Y3357D01*
X340Y3357D02*
X363Y3357D01*
X400Y3357D02*
X423Y3357D01*
X440Y3357D02*
X463Y3357D01*
X500Y3357D02*
X523Y3357D01*
X540Y3357D02*
X563Y3357D01*
X300Y3356D02*
X322Y3356D01*
X342Y3356D02*
X364Y3356D01*
X400Y3356D02*
X422Y3356D01*
X442Y3356D02*
X464Y3356D01*
X500Y3356D02*
X522Y3356D01*
X542Y3356D02*
X564Y3356D01*
X299Y3355D02*
X320Y3355D01*
X343Y3355D02*
X364Y3355D01*
X399Y3355D02*
X420Y3355D01*
X443Y3355D02*
X464Y3355D01*
X499Y3355D02*
X520Y3355D01*
X543Y3355D02*
X564Y3355D01*
X299Y3354D02*
X319Y3354D01*
X344Y3354D02*
X364Y3354D01*
X399Y3354D02*
X419Y3354D01*
X444Y3354D02*
X464Y3354D01*
X499Y3354D02*
X519Y3354D01*
X544Y3354D02*
X564Y3354D01*
X299Y3353D02*
X319Y3353D01*
X345Y3353D02*
X365Y3353D01*
X399Y3353D02*
X419Y3353D01*
X445Y3353D02*
X465Y3353D01*
X499Y3353D02*
X519Y3353D01*
X545Y3353D02*
X565Y3353D01*
X298Y3352D02*
X318Y3352D01*
X345Y3352D02*
X365Y3352D01*
X398Y3352D02*
X418Y3352D01*
X445Y3352D02*
X465Y3352D01*
X498Y3352D02*
X518Y3352D01*
X545Y3352D02*
X565Y3352D01*
X298Y3351D02*
X318Y3351D01*
X346Y3351D02*
X365Y3351D01*
X398Y3351D02*
X418Y3351D01*
X446Y3351D02*
X465Y3351D01*
X498Y3351D02*
X518Y3351D01*
X546Y3351D02*
X565Y3351D01*
X298Y3350D02*
X317Y3350D01*
X346Y3350D02*
X366Y3350D01*
X398Y3350D02*
X417Y3350D01*
X446Y3350D02*
X466Y3350D01*
X498Y3350D02*
X517Y3350D01*
X546Y3350D02*
X565Y3350D01*
X298Y3349D02*
X317Y3349D01*
X347Y3349D02*
X366Y3349D01*
X398Y3349D02*
X417Y3349D01*
X447Y3349D02*
X466Y3349D01*
X498Y3349D02*
X517Y3349D01*
X547Y3349D02*
X566Y3349D01*
X298Y3348D02*
X317Y3348D01*
X347Y3348D02*
X366Y3348D01*
X398Y3348D02*
X417Y3348D01*
X447Y3348D02*
X466Y3348D01*
X498Y3348D02*
X517Y3348D01*
X547Y3348D02*
X566Y3348D01*
X297Y3347D02*
X316Y3347D01*
X347Y3347D02*
X366Y3347D01*
X397Y3347D02*
X416Y3347D01*
X447Y3347D02*
X466Y3347D01*
X497Y3347D02*
X516Y3347D01*
X547Y3347D02*
X566Y3347D01*
X297Y3346D02*
X316Y3346D01*
X347Y3346D02*
X366Y3346D01*
X397Y3346D02*
X416Y3346D01*
X447Y3346D02*
X466Y3346D01*
X497Y3346D02*
X516Y3346D01*
X547Y3346D02*
X566Y3346D01*
X297Y3345D02*
X316Y3345D01*
X347Y3345D02*
X366Y3345D01*
X397Y3345D02*
X416Y3345D01*
X447Y3345D02*
X466Y3345D01*
X497Y3345D02*
X516Y3345D01*
X547Y3345D02*
X566Y3345D01*
X297Y3344D02*
X316Y3344D01*
X347Y3344D02*
X366Y3344D01*
X397Y3344D02*
X416Y3344D01*
X447Y3344D02*
X466Y3344D01*
X497Y3344D02*
X516Y3344D01*
X547Y3344D02*
X566Y3344D01*
X297Y3343D02*
X316Y3343D01*
X347Y3343D02*
X366Y3343D01*
X397Y3343D02*
X416Y3343D01*
X447Y3343D02*
X466Y3343D01*
X497Y3343D02*
X516Y3343D01*
X547Y3343D02*
X566Y3343D01*
X297Y3342D02*
X316Y3342D01*
X347Y3342D02*
X366Y3342D01*
X397Y3342D02*
X416Y3342D01*
X447Y3342D02*
X466Y3342D01*
X497Y3342D02*
X516Y3342D01*
X547Y3342D02*
X566Y3342D01*
X297Y3341D02*
X316Y3341D01*
X347Y3341D02*
X366Y3341D01*
X397Y3341D02*
X416Y3341D01*
X447Y3341D02*
X466Y3341D01*
X497Y3341D02*
X516Y3341D01*
X547Y3341D02*
X566Y3341D01*
X297Y3340D02*
X317Y3340D01*
X347Y3340D02*
X366Y3340D01*
X397Y3340D02*
X417Y3340D01*
X447Y3340D02*
X466Y3340D01*
X497Y3340D02*
X517Y3340D01*
X547Y3340D02*
X566Y3340D01*
X298Y3339D02*
X317Y3339D01*
X347Y3339D02*
X366Y3339D01*
X398Y3339D02*
X417Y3339D01*
X447Y3339D02*
X466Y3339D01*
X498Y3339D02*
X517Y3339D01*
X547Y3339D02*
X566Y3339D01*
X298Y3338D02*
X317Y3338D01*
X346Y3338D02*
X366Y3338D01*
X398Y3338D02*
X417Y3338D01*
X446Y3338D02*
X466Y3338D01*
X498Y3338D02*
X517Y3338D01*
X546Y3338D02*
X566Y3338D01*
X298Y3337D02*
X317Y3337D01*
X346Y3337D02*
X365Y3337D01*
X398Y3337D02*
X417Y3337D01*
X446Y3337D02*
X465Y3337D01*
X498Y3337D02*
X517Y3337D01*
X546Y3337D02*
X565Y3337D01*
X298Y3336D02*
X318Y3336D01*
X346Y3336D02*
X365Y3336D01*
X398Y3336D02*
X418Y3336D01*
X446Y3336D02*
X465Y3336D01*
X498Y3336D02*
X518Y3336D01*
X546Y3336D02*
X565Y3336D01*
X299Y3335D02*
X318Y3335D01*
X345Y3335D02*
X365Y3335D01*
X399Y3335D02*
X418Y3335D01*
X445Y3335D02*
X465Y3335D01*
X499Y3335D02*
X518Y3335D01*
X545Y3335D02*
X565Y3335D01*
X299Y3334D02*
X319Y3334D01*
X345Y3334D02*
X365Y3334D01*
X399Y3334D02*
X419Y3334D01*
X445Y3334D02*
X465Y3334D01*
X499Y3334D02*
X519Y3334D01*
X545Y3334D02*
X565Y3334D01*
X299Y3333D02*
X320Y3333D01*
X344Y3333D02*
X364Y3333D01*
X399Y3333D02*
X420Y3333D01*
X444Y3333D02*
X464Y3333D01*
X499Y3333D02*
X520Y3333D01*
X544Y3333D02*
X564Y3333D01*
X300Y3332D02*
X321Y3332D01*
X343Y3332D02*
X364Y3332D01*
X400Y3332D02*
X421Y3332D01*
X443Y3332D02*
X464Y3332D01*
X500Y3332D02*
X521Y3332D01*
X543Y3332D02*
X564Y3332D01*
X300Y3331D02*
X322Y3331D01*
X342Y3331D02*
X363Y3331D01*
X400Y3331D02*
X422Y3331D01*
X442Y3331D02*
X463Y3331D01*
X500Y3331D02*
X522Y3331D01*
X542Y3331D02*
X563Y3331D01*
X300Y3330D02*
X324Y3330D01*
X340Y3330D02*
X363Y3330D01*
X400Y3330D02*
X424Y3330D01*
X440Y3330D02*
X463Y3330D01*
X500Y3330D02*
X524Y3330D01*
X540Y3330D02*
X563Y3330D01*
X301Y3329D02*
X327Y3329D01*
X337Y3329D02*
X363Y3329D01*
X401Y3329D02*
X427Y3329D01*
X437Y3329D02*
X463Y3329D01*
X501Y3329D02*
X527Y3329D01*
X537Y3329D02*
X563Y3329D01*
X301Y3328D02*
X362Y3328D01*
X401Y3328D02*
X462Y3328D01*
X501Y3328D02*
X562Y3328D01*
X302Y3327D02*
X361Y3327D01*
X402Y3327D02*
X461Y3327D01*
X502Y3327D02*
X561Y3327D01*
X303Y3326D02*
X361Y3326D01*
X403Y3326D02*
X461Y3326D01*
X503Y3326D02*
X561Y3326D01*
X303Y3325D02*
X360Y3325D01*
X403Y3325D02*
X460Y3325D01*
X503Y3325D02*
X560Y3325D01*
X304Y3324D02*
X359Y3324D01*
X404Y3324D02*
X459Y3324D01*
X504Y3324D02*
X559Y3324D01*
X305Y3323D02*
X359Y3323D01*
X405Y3323D02*
X459Y3323D01*
X505Y3323D02*
X559Y3323D01*
X306Y3322D02*
X358Y3322D01*
X406Y3322D02*
X458Y3322D01*
X506Y3322D02*
X558Y3322D01*
X306Y3321D02*
X357Y3321D01*
X406Y3321D02*
X457Y3321D01*
X506Y3321D02*
X557Y3321D01*
X307Y3320D02*
X356Y3320D01*
X407Y3320D02*
X456Y3320D01*
X507Y3320D02*
X556Y3320D01*
X308Y3319D02*
X355Y3319D01*
X408Y3319D02*
X455Y3319D01*
X508Y3319D02*
X555Y3319D01*
X309Y3318D02*
X354Y3318D01*
X409Y3318D02*
X454Y3318D01*
X509Y3318D02*
X554Y3318D01*
X311Y3317D02*
X353Y3317D01*
X411Y3317D02*
X453Y3317D01*
X511Y3317D02*
X553Y3317D01*
X312Y3316D02*
X352Y3316D01*
X412Y3316D02*
X452Y3316D01*
X512Y3316D02*
X552Y3316D01*
X313Y3315D02*
X350Y3315D01*
X413Y3315D02*
X450Y3315D01*
X513Y3315D02*
X550Y3315D01*
X315Y3314D02*
X349Y3314D01*
X415Y3314D02*
X449Y3314D01*
X515Y3314D02*
X549Y3314D01*
X316Y3313D02*
X347Y3313D01*
X416Y3313D02*
X447Y3313D01*
X516Y3313D02*
X547Y3313D01*
X318Y3312D02*
X345Y3312D01*
X418Y3312D02*
X445Y3312D01*
X518Y3312D02*
X545Y3312D01*
X320Y3311D02*
X343Y3311D01*
X420Y3311D02*
X443Y3311D01*
X520Y3311D02*
X543Y3311D01*
X323Y3310D02*
X340Y3310D01*
X423Y3310D02*
X440Y3310D01*
X523Y3310D02*
X540Y3310D01*
X327Y3309D02*
X336Y3309D01*
X427Y3309D02*
X436Y3309D01*
X527Y3309D02*
X536Y3309D01*
X1276Y788D02*
X1362Y788D01*
X1276Y787D02*
X1362Y787D01*
X1276Y786D02*
X1362Y786D01*
X1276Y785D02*
X1362Y785D01*
X1276Y784D02*
X1362Y784D01*
X1276Y783D02*
X1362Y783D01*
X1276Y782D02*
X1362Y782D01*
X1276Y781D02*
X1362Y781D01*
X1276Y780D02*
X1362Y780D01*
X1276Y779D02*
X1362Y779D01*
X1276Y778D02*
X1362Y778D01*
X1276Y777D02*
X1362Y777D01*
X1276Y776D02*
X1362Y776D01*
X1276Y775D02*
X1362Y775D01*
X1276Y774D02*
X1362Y774D01*
X1276Y773D02*
X1362Y773D01*
X1276Y772D02*
X1362Y772D01*
X1276Y771D02*
X1362Y771D01*
X1276Y770D02*
X1362Y770D01*
X1276Y769D02*
X1362Y769D01*
X1276Y768D02*
X1362Y768D01*
X1276Y767D02*
X1362Y767D01*
X1276Y766D02*
X1362Y766D01*
X1276Y765D02*
X1362Y765D01*
X1276Y764D02*
X1362Y764D01*
X1276Y763D02*
X1362Y763D01*
X1276Y762D02*
X1362Y762D01*
X1276Y761D02*
X1362Y761D01*
X1276Y760D02*
X1362Y760D01*
X1276Y759D02*
X1362Y759D01*
X1276Y758D02*
X1362Y758D01*
X1276Y757D02*
X1362Y757D01*
X1276Y756D02*
X1362Y756D01*
X1276Y755D02*
X1362Y755D01*
X1276Y754D02*
X1362Y754D01*
X1276Y753D02*
X1362Y753D01*
X1276Y752D02*
X1362Y752D01*
X1276Y751D02*
X1362Y751D01*
X1276Y750D02*
X1362Y750D01*
X1276Y749D02*
X1362Y749D01*
X1276Y748D02*
X1362Y748D01*
X1276Y747D02*
X1362Y747D01*
X1276Y746D02*
X1362Y746D01*
X1276Y745D02*
X1362Y745D01*
X1276Y744D02*
X1362Y744D01*
X1276Y743D02*
X1362Y743D01*
X1276Y742D02*
X1362Y742D01*
X1276Y741D02*
X1362Y741D01*
X1276Y740D02*
X1362Y740D01*
X1276Y739D02*
X1362Y739D01*
X1276Y738D02*
X1362Y738D01*
X1276Y737D02*
X1362Y737D01*
X1276Y736D02*
X1362Y736D01*
X1276Y735D02*
X1362Y735D01*
X1276Y734D02*
X1362Y734D01*
X1276Y733D02*
X1362Y733D01*
X1276Y732D02*
X1362Y732D01*
X1276Y731D02*
X1362Y731D01*
X1276Y730D02*
X1362Y730D01*
X1276Y729D02*
X1362Y729D01*
X1276Y728D02*
X1362Y728D01*
X1276Y727D02*
X1362Y727D01*
X1276Y726D02*
X1362Y726D01*
X1276Y725D02*
X1362Y725D01*
X1276Y724D02*
X1362Y724D01*
X1276Y723D02*
X1362Y723D01*
X1276Y722D02*
X1362Y722D01*
X1276Y721D02*
X1362Y721D01*
X1276Y720D02*
X1362Y720D01*
X1276Y719D02*
X1362Y719D01*
X1276Y718D02*
X1362Y718D01*
X1276Y717D02*
X1362Y717D01*
X1276Y716D02*
X1362Y716D01*
X1276Y715D02*
X1362Y715D01*
X1276Y714D02*
X1362Y714D01*
X1276Y713D02*
X1362Y713D01*
X1276Y712D02*
X1362Y712D01*
X1276Y711D02*
X1362Y711D01*
X1276Y710D02*
X1362Y710D01*
X1276Y709D02*
X1362Y709D01*
X1276Y708D02*
X1362Y708D01*
X1276Y707D02*
X1362Y707D01*
X1276Y706D02*
X1362Y706D01*
X1276Y705D02*
X1362Y705D01*
X1276Y704D02*
X1362Y704D01*
X1276Y703D02*
X1362Y703D01*
X1276Y580D02*
X1362Y580D01*
X1276Y579D02*
X1362Y579D01*
X1276Y578D02*
X1362Y578D01*
X1276Y577D02*
X1362Y577D01*
X1276Y576D02*
X1362Y576D01*
X1276Y575D02*
X1362Y575D01*
X1276Y574D02*
X1362Y574D01*
X1276Y573D02*
X1362Y573D01*
X1276Y572D02*
X1362Y572D01*
X1276Y571D02*
X1362Y571D01*
X1276Y570D02*
X1362Y570D01*
X1276Y569D02*
X1362Y569D01*
X1276Y568D02*
X1362Y568D01*
X1276Y567D02*
X1362Y567D01*
X1276Y566D02*
X1362Y566D01*
X1276Y565D02*
X1362Y565D01*
X1276Y564D02*
X1362Y564D01*
X1276Y563D02*
X1362Y563D01*
X1276Y562D02*
X1362Y562D01*
X1276Y561D02*
X1362Y561D01*
X1276Y560D02*
X1362Y560D01*
X1276Y559D02*
X1362Y559D01*
X1276Y558D02*
X1362Y558D01*
X1276Y557D02*
X1362Y557D01*
X1276Y556D02*
X1362Y556D01*
X1276Y555D02*
X1362Y555D01*
X1276Y554D02*
X1362Y554D01*
X1276Y553D02*
X1362Y553D01*
X1276Y552D02*
X1362Y552D01*
X1276Y551D02*
X1362Y551D01*
X1276Y550D02*
X1362Y550D01*
X1276Y549D02*
X1362Y549D01*
X1276Y548D02*
X1362Y548D01*
X1276Y547D02*
X1362Y547D01*
X1276Y546D02*
X1362Y546D01*
X1276Y545D02*
X1362Y545D01*
X1276Y544D02*
X1362Y544D01*
X1276Y543D02*
X1362Y543D01*
X1276Y542D02*
X1362Y542D01*
X1276Y541D02*
X1362Y541D01*
X1276Y540D02*
X1362Y540D01*
X1276Y539D02*
X1362Y539D01*
X1276Y538D02*
X1362Y538D01*
X1276Y537D02*
X1362Y537D01*
X1276Y536D02*
X1362Y536D01*
X1276Y535D02*
X1362Y535D01*
X1276Y534D02*
X1362Y534D01*
X1276Y533D02*
X1362Y533D01*
X1276Y532D02*
X1362Y532D01*
X1276Y531D02*
X1362Y531D01*
X1276Y530D02*
X1362Y530D01*
X1276Y529D02*
X1362Y529D01*
X1276Y528D02*
X1362Y528D01*
X1276Y527D02*
X1362Y527D01*
X1276Y526D02*
X1362Y526D01*
X1276Y525D02*
X1362Y525D01*
X1276Y524D02*
X1362Y524D01*
X1276Y523D02*
X1362Y523D01*
X1276Y522D02*
X1362Y522D01*
X1276Y521D02*
X1362Y521D01*
X1276Y520D02*
X1362Y520D01*
X1276Y519D02*
X1362Y519D01*
X1276Y518D02*
X1362Y518D01*
X1276Y517D02*
X1362Y517D01*
X1276Y516D02*
X1362Y516D01*
X1276Y515D02*
X1362Y515D01*
X1276Y514D02*
X1362Y514D01*
X1276Y513D02*
X1362Y513D01*
X1276Y512D02*
X1362Y512D01*
X1276Y511D02*
X1362Y511D01*
X1276Y510D02*
X1362Y510D01*
X1276Y509D02*
X1362Y509D01*
X1276Y508D02*
X1362Y508D01*
X1276Y507D02*
X1362Y507D01*
X1276Y506D02*
X1362Y506D01*
X1276Y505D02*
X1362Y505D01*
X1276Y504D02*
X1362Y504D01*
X1276Y503D02*
X1362Y503D01*
X1276Y502D02*
X1362Y502D01*
X1276Y501D02*
X1362Y501D01*
X1276Y500D02*
X1362Y500D01*
X1276Y499D02*
X1362Y499D01*
X1276Y498D02*
X1362Y498D01*
X1276Y497D02*
X1362Y497D01*
X1276Y496D02*
X1362Y496D01*
X1276Y495D02*
X1362Y495D01*
X240Y382D02*
X311Y382D01*
X240Y381D02*
X311Y381D01*
X240Y380D02*
X311Y380D01*
X240Y379D02*
X311Y379D01*
X240Y378D02*
X311Y378D01*
X240Y377D02*
X311Y377D01*
X240Y376D02*
X311Y376D01*
X240Y375D02*
X311Y375D01*
X240Y374D02*
X311Y374D01*
X240Y373D02*
X311Y373D01*
X240Y372D02*
X311Y372D01*
X1276Y372D02*
X1362Y372D01*
X240Y371D02*
X311Y371D01*
X1276Y371D02*
X1362Y371D01*
X240Y370D02*
X311Y370D01*
X1276Y370D02*
X1362Y370D01*
X240Y369D02*
X311Y369D01*
X1276Y369D02*
X1362Y369D01*
X240Y368D02*
X311Y368D01*
X1276Y368D02*
X1362Y368D01*
X240Y367D02*
X311Y367D01*
X1276Y367D02*
X1362Y367D01*
X240Y366D02*
X311Y366D01*
X1276Y366D02*
X1362Y366D01*
X240Y365D02*
X311Y365D01*
X1276Y365D02*
X1362Y365D01*
X240Y364D02*
X311Y364D01*
X1276Y364D02*
X1362Y364D01*
X240Y363D02*
X311Y363D01*
X1276Y363D02*
X1362Y363D01*
X240Y362D02*
X311Y362D01*
X1276Y362D02*
X1362Y362D01*
X240Y361D02*
X311Y361D01*
X1276Y361D02*
X1362Y361D01*
X240Y360D02*
X311Y360D01*
X1276Y360D02*
X1362Y360D01*
X240Y359D02*
X311Y359D01*
X1276Y359D02*
X1362Y359D01*
X240Y358D02*
X311Y358D01*
X1276Y358D02*
X1362Y358D01*
X240Y357D02*
X311Y357D01*
X1276Y357D02*
X1362Y357D01*
X240Y356D02*
X311Y356D01*
X1276Y356D02*
X1362Y356D01*
X240Y355D02*
X311Y355D01*
X1276Y355D02*
X1362Y355D01*
X240Y354D02*
X311Y354D01*
X1276Y354D02*
X1362Y354D01*
X240Y353D02*
X311Y353D01*
X1276Y353D02*
X1362Y353D01*
X240Y352D02*
X311Y352D01*
X1276Y352D02*
X1362Y352D01*
X240Y351D02*
X311Y351D01*
X1276Y351D02*
X1362Y351D01*
X240Y350D02*
X311Y350D01*
X1276Y350D02*
X1362Y350D01*
X240Y349D02*
X311Y349D01*
X1276Y349D02*
X1362Y349D01*
X240Y348D02*
X311Y348D01*
X1276Y348D02*
X1362Y348D01*
X240Y347D02*
X311Y347D01*
X1276Y347D02*
X1362Y347D01*
X240Y346D02*
X311Y346D01*
X1276Y346D02*
X1362Y346D01*
X240Y345D02*
X311Y345D01*
X1276Y345D02*
X1362Y345D01*
X240Y344D02*
X311Y344D01*
X1276Y344D02*
X1362Y344D01*
X240Y343D02*
X311Y343D01*
X1276Y343D02*
X1362Y343D01*
X240Y342D02*
X311Y342D01*
X1276Y342D02*
X1362Y342D01*
X240Y341D02*
X311Y341D01*
X1276Y341D02*
X1362Y341D01*
X240Y340D02*
X311Y340D01*
X1276Y340D02*
X1362Y340D01*
X240Y339D02*
X311Y339D01*
X1276Y339D02*
X1362Y339D01*
X240Y338D02*
X311Y338D01*
X1276Y338D02*
X1362Y338D01*
X240Y337D02*
X311Y337D01*
X1276Y337D02*
X1362Y337D01*
X240Y336D02*
X311Y336D01*
X1276Y336D02*
X1362Y336D01*
X240Y335D02*
X311Y335D01*
X1276Y335D02*
X1362Y335D01*
X240Y334D02*
X311Y334D01*
X1276Y334D02*
X1362Y334D01*
X240Y333D02*
X311Y333D01*
X1276Y333D02*
X1362Y333D01*
X240Y332D02*
X311Y332D01*
X1276Y332D02*
X1362Y332D01*
X240Y331D02*
X311Y331D01*
X1276Y331D02*
X1362Y331D01*
X240Y330D02*
X311Y330D01*
X1276Y330D02*
X1362Y330D01*
X240Y329D02*
X311Y329D01*
X1276Y329D02*
X1362Y329D01*
X240Y328D02*
X311Y328D01*
X1276Y328D02*
X1362Y328D01*
X240Y327D02*
X311Y327D01*
X1276Y327D02*
X1362Y327D01*
X240Y326D02*
X311Y326D01*
X1276Y326D02*
X1362Y326D01*
X240Y325D02*
X311Y325D01*
X1276Y325D02*
X1362Y325D01*
X240Y324D02*
X311Y324D01*
X1276Y324D02*
X1362Y324D01*
X240Y323D02*
X311Y323D01*
X1276Y323D02*
X1362Y323D01*
X240Y322D02*
X311Y322D01*
X1276Y322D02*
X1362Y322D01*
X240Y321D02*
X311Y321D01*
X1276Y321D02*
X1362Y321D01*
X240Y320D02*
X311Y320D01*
X1276Y320D02*
X1362Y320D01*
X240Y319D02*
X311Y319D01*
X1276Y319D02*
X1362Y319D01*
X240Y318D02*
X311Y318D01*
X1276Y318D02*
X1362Y318D01*
X240Y317D02*
X311Y317D01*
X1276Y317D02*
X1362Y317D01*
X240Y316D02*
X311Y316D01*
X1276Y316D02*
X1362Y316D01*
X240Y315D02*
X311Y315D01*
X1276Y315D02*
X1362Y315D01*
X240Y314D02*
X311Y314D01*
X1276Y314D02*
X1362Y314D01*
X240Y313D02*
X311Y313D01*
X1276Y313D02*
X1362Y313D01*
X240Y312D02*
X311Y312D01*
X1276Y312D02*
X1362Y312D01*
X240Y311D02*
X311Y311D01*
X1276Y311D02*
X1362Y311D01*
X1276Y310D02*
X1362Y310D01*
X1276Y309D02*
X1362Y309D01*
X1276Y308D02*
X1362Y308D01*
X1276Y307D02*
X1362Y307D01*
X1276Y306D02*
X1362Y306D01*
X1276Y305D02*
X1362Y305D01*
X1276Y304D02*
X1362Y304D01*
X1276Y303D02*
X1362Y303D01*
X1276Y302D02*
X1362Y302D01*
X1276Y301D02*
X1362Y301D01*
X1276Y300D02*
X1362Y300D01*
X1276Y299D02*
X1362Y299D01*
X1276Y298D02*
X1362Y298D01*
X1276Y297D02*
X1362Y297D01*
X1276Y296D02*
X1362Y296D01*
X1276Y295D02*
X1362Y295D01*
X1276Y294D02*
X1362Y294D01*
X1276Y293D02*
X1362Y293D01*
X1276Y292D02*
X1362Y292D01*
X1276Y291D02*
X1362Y291D01*
X1276Y290D02*
X1362Y290D01*
X1276Y289D02*
X1362Y289D01*
X1276Y288D02*
X1362Y288D01*
X1276Y287D02*
X1362Y287D01*
X1277Y286D02*
X1362Y286D01*
D02*
G04 End of Copper0*
M02*