M48
INCH
T10C0.052000
T11C0.015748
T12C0.051181
T13C0.035000
T14C0.030000
T15C0.031555
T16C0.031496
T17C0.039370
T18C0.041964
T19C0.038000
T20C0.040255
T21C0.040000
T22C0.031497
%
T10
X034062Y028465
X034062Y031465
T11
X006110Y033434
X032045Y034721
X032035Y037165
X030519Y036584
X017133Y037765
X006110Y028709
X013196Y038946
X018840Y032942
X022645Y034221
X022645Y032646
X013993Y036977
X012409Y033434
X016346Y038552
T12
X005641Y020639
X004141Y022017
X004141Y019261
T13
X036818Y033453
X024551Y024812
X023551Y024812
X022551Y024812
X021551Y024812
X020551Y024812
X019551Y024812
X018551Y024812
X017551Y024812
X016551Y024812
X015551Y024812
X014551Y024812
X013551Y024812
X012551Y024812
X011551Y024812
X010551Y024812
X009551Y024812
X006091Y040127
X001385Y034634
X001385Y029516
X030500Y041308
X019477Y041308
X024595Y041308
X004141Y027547
X020495Y031859
X020495Y029859
X019495Y031859
X019495Y029859
X018495Y031859
X018495Y029859
X017495Y031859
X017495Y029859
X016495Y031859
X016495Y029859
X015495Y031859
X015495Y029859
X014495Y031859
X014495Y029859
X013495Y031859
X013495Y029859
X012495Y031859
X012495Y029859
X011495Y031859
X011495Y029859
X010495Y031859
X010495Y029859
X009495Y031859
X009495Y029859
X008495Y031859
X008495Y029859
X007495Y031859
X007495Y029859
X029374Y029040
X029374Y033040
X014752Y027528
T14
X005322Y033434
X004322Y033434
X003322Y033434
X026582Y032465
X026582Y031465
X026582Y030103
X026582Y029103
T15
X024220Y028690
T16
X024220Y028690
T17
X031306Y028497
X031306Y029497
X031306Y030497
X031306Y031497
X031306Y032497
T18
X015044Y005389
X015044Y004436
T19
X008291Y040127
X007291Y040127
T20
X007604Y035143
X008604Y035143
X007604Y036149
X008604Y036149
X007604Y037156
X008604Y037156
X007604Y038162
X008604Y038162
T21
X033736Y033405
T22
X038039Y030698
T00
M30
