<?xml version="1.0" encoding="UTF-8" standalone="no"?>
<!-- Created with Fritzing (http://www.fritzing.org/) -->

<svg
   xmlns:dc="http://purl.org/dc/elements/1.1/"
   xmlns:cc="http://creativecommons.org/ns#"
   xmlns:rdf="http://www.w3.org/1999/02/22-rdf-syntax-ns#"
   xmlns:svg="http://www.w3.org/2000/svg"
   xmlns="http://www.w3.org/2000/svg"
   xmlns:sodipodi="http://sodipodi.sourceforge.net/DTD/sodipodi-0.dtd"
   xmlns:inkscape="http://www.inkscape.org/namespaces/inkscape"
   width="18.070866"
   x="0in"
   version="1.2"
   y="0in"
   height="85.3937"
   viewBox="0 0 200.78739 948.81896"
   id="svg2"
   inkscape:version="0.48.4 r9939"
   sodipodi:docname="svg.pcb.aso242r_a91aaef3bc00abd47497ec0353e06948_1_pcb.svg">
  <metadata
     id="metadata30">
    <rdf:RDF>
      <cc:Work
         rdf:about="">
        <dc:format>image/svg+xml</dc:format>
        <dc:type
           rdf:resource="http://purl.org/dc/dcmitype/StillImage" />
      </cc:Work>
    </rdf:RDF>
  </metadata>
  <defs
     id="defs28" />
  <sodipodi:namedview
     pagecolor="#ffffff"
     bordercolor="#666666"
     borderopacity="1"
     objecttolerance="10"
     gridtolerance="10"
     guidetolerance="10"
     inkscape:pageopacity="0"
     inkscape:pageshadow="2"
     inkscape:window-width="1855"
     inkscape:window-height="1176"
     id="namedview26"
     showgrid="true"
     units="mm"
     inkscape:zoom="5.6568543"
     inkscape:cx="-20.246022"
     inkscape:cy="38.197593"
     inkscape:window-x="1985"
     inkscape:window-y="24"
     inkscape:window-maximized="1"
     inkscape:current-layer="copper0">
    <inkscape:grid
       type="xygrid"
       id="grid3007"
       empspacing="10"
       visible="true"
       enabled="true"
       snapvisiblegridlinesonly="true"
       units="mm"
       spacingx="0.1mm"
       spacingy="0.1mm"
       originx="-0.2mm"
       originy="0.4mm" />
  </sodipodi:namedview>
  <desc
     id="desc4">
    <referenceFile
       id="referenceFile6">jumper_4_100mil_pcb.svg</referenceFile>
  </desc>
  <g
     id="copper0"
     gorn="0.1.0"
     transform="translate(0,508.81825)">
    <rect
       style="fill:none;stroke:#ffbf00;stroke-width:20"
       id="square"
       height="58"
       gorn="0.1.0.0"
       y="-471.13898"
       x="41.69083"
       width="58" />
    <circle
       style="fill:none;stroke:#ffbf00;stroke-width:20"
       sodipodi:ry="29"
       sodipodi:rx="29"
       sodipodi:cy="70"
       sodipodi:cx="70"
       d="M 99,70 C 99,86.016258 86.016258,99 70,99 53.983742,99 41,86.016258 41,70 41,53.983742 53.983742,41 70,41 86.016258,41 99,53.983742 99,70 z"
       r="29"
       id="connector0pin"
       cy="70"
       gorn="0.1.0.1"
       cx="70"
       transform="translate(0.69083074,-512.13898)" />
    <circle
       style="fill:none;stroke:#ffbf00;stroke-width:20"
       sodipodi:ry="29"
       sodipodi:rx="29"
       sodipodi:cy="170"
       sodipodi:cx="70"
       d="m 99,170 c 0,16.01626 -12.983742,29 -29,29 -16.016258,0 -29,-12.98374 -29,-29 0,-16.01626 12.983742,-29 29,-29 16.016258,0 29,12.98374 29,29 z"
       r="29"
       id="connector1pin"
       cy="170"
       gorn="0.1.0.2"
       cx="70"
       transform="translate(1.5948203,127.97864)" />
    <circle
       style="fill:none;stroke:#ffbf00;stroke-width:20"
       sodipodi:ry="29"
       sodipodi:rx="29"
       sodipodi:cy="270"
       sodipodi:cx="70"
       d="m 99,270 c 0,16.01626 -12.983742,29 -29,29 -16.016258,0 -29,-12.98374 -29,-29 0,-16.01626 12.983742,-29 29,-29 16.016258,0 29,12.98374 29,29 z"
       r="29"
       id="connector2pin"
       cy="270"
       gorn="0.1.0.3"
       cx="70"
       transform="translate(0.48555621,-70.517142)" />
    <circle
       style="fill:none;stroke:#ffbf00;stroke-width:20"
       sodipodi:ry="29"
       sodipodi:rx="29"
       sodipodi:cy="370"
       sodipodi:cx="70"
       d="m 99,370 c 0,16.01626 -12.983742,29 -29,29 -16.016258,0 -29,-12.98374 -29,-29 0,-16.01626 12.983742,-29 29,-29 16.016258,0 29,12.98374 29,29 z"
       r="29"
       id="connector3pin"
       cy="370"
       gorn="0.1.0.4"
       cx="70"
       transform="translate(0.46952743,-572.069)" />
  </g>
  <g
     gorn="0.2"
     id="silkscreen"
     transform="translate(0,508.81825)">
    <line
       y1="20"
       x1="20"
       y2="420"
       x2="20"
       id="line16"
       style="stroke:#ffffff;stroke-width:10" />
    <line
       y1="420"
       x1="20"
       y2="420"
       x2="120"
       id="line18"
       style="stroke:#ffffff;stroke-width:10" />
    <line
       y1="420"
       x1="120"
       y2="20"
       x2="120"
       id="line20"
       style="stroke:#ffffff;stroke-width:10" />
    <line
       y1="20"
       x1="120"
       y2="20"
       x2="20"
       id="line22"
       style="stroke:#ffffff;stroke-width:10" />
    <line
       y1="55"
       x1="20"
       y2="20"
       x2="55"
       id="line24"
       style="stroke:#ffffff;stroke-width:5" />
    <!-- 120 -->
  </g>
</svg>
